<?xml version="1.0" encoding="utf-8"?>
<!-- Generator: Adobe Illustrator 19.2.1, SVG Export Plug-In . SVG Version: 6.00 Build 0)  -->
<svg version="1.1" id="Calque_1" xmlns="http://www.w3.org/2000/svg" xmlns:xlink="http://www.w3.org/1999/xlink" x="0px" y="0px"
	 viewBox="0 0 621.9 248.1" style="enable-background:new 0 0 621.9 248.1;" xml:space="preserve">
<style type="text/css">
	.st0{fill:#48CDE0;}
	.st1{fill:#464680;}
	.st2{fill:#B9BEBE;}
	.st3{fill:#656F70;}
</style>
<g>
	<path class="st0" d="M188.9,178.9c-0.6,0.7-1.6,1.1-2.5,1.2c-0.6,0.1-1,0.1-1.5,0l-0.2,0c-1.9-0.3-3.9-0.6-5.9-0.8
		c-3-0.3-5-1.7-6.6-4.5c-6.1-10.6-13.3-21-21.2-31.1c-2.2-2.7-4.4-5.4-6.7-8.1c-0.2-0.2-0.4-0.5-0.7-0.7c-0.1-0.1-0.2-0.1-0.2,0
		c-1.2,1.4-2.4,2.8-3.5,4.2c-2.9,3.5-5.7,7.2-8.4,10.8c-1.5,2-3,4.1-4.4,6.1c-4.5,6.4-8.6,12.8-12.1,19.1c-1.4,2.5-3.5,3.8-6.3,4.2
		c-2.6,0.4-3.4,0.6-6,0.9l-0.2,0c-0.2,0-0.3,0-0.5,0c-0.1,0-0.3,0-0.4,0c-1.3-0.1-2.5-0.8-3.2-1.9c-0.7-1.1-0.8-2.5-0.2-3.7l0.1-0.1
		c2.9-5.8,6.3-11.8,10.1-17.8c1.2-2,2.5-4,3.8-6c4.7-7.2,9.9-14.3,15.3-21.1c1.5-1.9,3.1-3.9,4.7-5.8c0.1-0.1,0-0.2,0-0.2
		c-1.1-1.1-2.3-2.3-3.4-3.4c-3.2-3.2-6.5-6.3-9.9-9.3c0,0-15.7-13.5-20.1-17.6c-3.3-3.1,2.1-3.3,4.3-3.3l11.9-0.1
		c3.5,0,4.6,0.6,6.4,2.1c7.2,5.8,7.2,5.8,14.3,12c2.8,2.4,5.3,5.2,7.8,7.9c2.5-2.7,5-5.5,7.8-7.9c7.1-6.2,7.1-6.2,14.3-12
		c1.8-1.5,2.9-2.1,6.4-2.1l11.9,0.1c2.1,0,7.6,0.2,4.3,3.3c-4.3,4.1-20.1,17.6-20.1,17.6c-3.3,3-6.7,6.2-9.9,9.3
		c-1.1,1.1-2.2,2.2-3.2,3.3l0.1,0.1c-0.1,0.1-0.1,0.1,0,0.2c4,4.8,7.9,9.7,11.6,14.6c1.8,2.5,3.6,5,5.3,7.4
		c6.4,9.3,12.2,18.8,17.1,28.3c0.3,0.6,0.5,1.2,0.6,2C189.9,177.1,189.6,178.1,188.9,178.9 M133.1,61.9c0-2.2,1.8-3.9,3.9-3.9h13
		c2.2,0,3.9,1.8,3.9,3.9v13c0,2.2-1.8,3.9-3.9,3.9h-13c-2.2,0-3.9-1.8-3.9-3.9V61.9z M235,65.8L88.9,1.3C81.6-2,73.1,1.2,69.8,8.5
		L1.3,158.9c-3.3,7.3-0.1,14.7,7.2,18l146.1,65.7c7.3,3.3,15.8,0.1,19.1-7.2L242.3,85C245.5,77.7,242.3,69.1,235,65.8"/>
	<path class="st0" d="M520.2,171.5c0.7,0,1.5-0.4,2-1c0.6-0.6,0.8-1.4,0.7-2.3c-0.1-0.7-0.3-1.2-0.5-1.6c-4-7.7-8.6-15.4-13.8-22.9
		c-1.4-2-2.8-4-4.3-6c-3-4-6.1-8-9.4-11.9c0-0.1,0-0.1,0-0.2l-0.1-0.1c0.9-0.9,1.7-1.8,2.6-2.6c2.6-2.6,5.3-5.1,8-7.6
		c0,0,12.7-11,16.2-14.2c2.7-2.5-1.7-2.7-3.5-2.7l-9.6,0c-2.8,0-3.7,0.5-5.2,1.7c-5.8,4.7-6.3,4.5-11.6,9.7
		c-2.1,2.1-4.3,4.2-6.3,6.4c-2.1-2.2-4.2-4.3-6.3-6.4c-5.3-5.2-5.8-5-11.6-9.7c-1.5-1.2-2.4-1.7-5.2-1.7l-9.6,0
		c-1.7,0-6.1,0.1-3.5,2.7c3.5,3.3,16.2,14.2,16.2,14.2c2.7,2.4,5.4,5,8,7.6c0.9,0.9,1.8,1.8,2.7,2.8c0,0,0,0.1,0,0.2
		c-1.3,1.6-2.6,3.1-3.8,4.7c-4.4,5.5-8.5,11.3-12.4,17.1c-1.1,1.6-2.1,3.3-3.1,4.8c-3,4.9-5.8,9.7-8.1,14.4l0,0.1
		c-0.5,1-0.4,2.1,0.2,3c0.6,0.9,1.5,1.5,2.6,1.5c0.1,0,0.2,0,0.3,0c0.1,0,0.3,0,0.4,0l0.1,0c1.6-0.3,3.3-0.5,4.8-0.7
		c2.3-0.2,3.9-1.4,5.1-3.4c2.9-5.1,6.2-10.3,9.8-15.5c1.1-1.6,2.3-3.3,3.6-4.9c2.2-2.9,4.5-5.9,6.8-8.7c0.9-1.1,1.9-2.3,2.9-3.4
		c0.1-0.1,0.1-0.1,0.2,0c0.2,0.2,0.4,0.4,0.5,0.6c1.8,2.2,3.7,4.4,5.4,6.6c6.5,8.1,12.2,16.6,17.2,25.2c1.3,2.3,3.1,3.3,5.4,3.7
		C516.5,171.2,518.9,171.6,520.2,171.5"/>
	<path class="st1" d="M304.3,135.6c-15.3,0-20.3,4.2-20.3,13.9c0,8.8,3.5,14,19.9,14c8,0,13-0.8,17-2.2c2.2-0.8,2.7-1.4,2.7-4.1V137
		C320.7,136.6,312.4,135.6,304.3,135.6 M304.7,95.4c22.4,0,28.2,12.5,28.2,27.6v36.8c0,4.9-1.1,6.3-5.1,8
		c-5.2,2.2-12.8,3.6-23.3,3.6c-24.4,0-30.3-7.7-30.3-21.7c0-16.1,8.8-21.6,30.9-21.6c8.3,0,15.7,1,18.2,1.4v-6.6
		c0-10.9-3.5-19.1-18.9-19.1c-9.7,0-15.9,3.6-19.6,10.1c-1.1,1.7-1.5,2-3.4,1.3l-3.4-1.4c-1.8-0.7-2.4-1.7-1.4-3.6
		C281.4,100.8,290.5,95.4,304.7,95.4"/>
	<path class="st1" d="M378.7,104.1c-14.6,0-21.5,6.7-21.5,20.2v17.8c0,11.9,6.5,18.7,19.6,18.7c10,0,17.5-2.8,20.9-4.1v-46.3
		c0-2.2-0.3-2.7-2.7-3.6C391.3,105.3,385.7,104.1,378.7,104.1 M378,95.4c10.5,0,18.8,2.1,23.7,4.2c4.5,2,5.5,3.1,5.5,7.7v66.5
		c0,18.2-8.3,30.3-29.6,30.3c-15,0-23.1-6.2-27.9-15c-1.1-1.8-0.8-3.2,1.1-4.2l3.1-1.5c2-1.1,2.8-0.7,4.1,1
		c3.6,6.7,8.8,11.2,19.4,11.2c14.3,0,20.3-8,20.3-21.3v-9c-3.8,1.4-11.9,4.2-22.2,4.2c-19.1,0-27.6-10.2-27.6-27.1v-18.2
		C347.8,105.5,357.5,95.4,378,95.4"/>
	<path class="st1" d="M434.8,99.9v67.1c0,2-0.6,2.5-2.5,2.5h-4.3c-2,0-2.5-0.6-2.5-2.5V99.9c0-2,0.6-2.5,2.5-2.5h4.3
		C434.2,97.3,434.8,97.9,434.8,99.9 M435.8,74.5v1c0,3.9-1.3,5.1-5.2,5.1h-0.8c-3.9,0-5.2-1.1-5.2-5.1v-1c0-3.9,1.3-5.2,5.2-5.2h0.8
		C434.5,69.3,435.8,70.5,435.8,74.5"/>
	<path class="st1" d="M543.5,99.9v67.1c0,2-0.6,2.5-2.5,2.5h-4.4c-2,0-2.5-0.6-2.5-2.5V99.9c0-2,0.6-2.5,2.5-2.5h4.4
		C542.9,97.3,543.5,97.9,543.5,99.9 M544.5,74.5v1c0,3.9-1.3,5.1-5.2,5.1h-0.8c-3.9,0-5.2-1.1-5.2-5.1v-1c0-3.9,1.3-5.2,5.2-5.2h0.8
		C543.2,69.3,544.5,70.5,544.5,74.5"/>
	<path class="st1" d="M587,95.4c16.1,0,24.6,5.9,28.6,15.2c1,1.8,0.4,2.9-1.3,3.6l-3.5,1.5c-2,0.8-2.5,0.4-3.5-1.3
		c-2.9-6.5-8-10.7-20.2-10.7c-12.3,0-18.4,4.2-18.4,12.2c0,11.1,8.8,12.3,21.2,13.5c15.3,1.4,27.4,4.3,27.4,20.5
		c0,13-9.4,21.5-28.9,21.5c-15.3,0-25.5-5.3-30.2-17.4c-0.7-1.7-0.3-2.8,1.5-3.4l3.6-1.3c1.7-0.6,2.5-0.3,3.4,1.5
		c3.4,8.8,10.5,12.2,21.5,12.2c13.5,0,19.8-4.6,19.8-12.8c0-10-8.1-11.5-20.3-12.8c-14.2-1.4-28.3-3.5-28.3-21.3
		C559.3,103.4,568.6,95.4,587,95.4"/>
</g>
<rect x="274.2" y="218.8" class="st2" width="1.1" height="29.3"/>
<g>
	<path class="st3" d="M294.5,222.9h2l8.5,18.9h-2.3l-2.2-5h-10.2l-2.2,5H286L294.5,222.9z M299.7,235l-4.3-9.6l-4.3,9.6H299.7z"/>
	<path class="st3" d="M308.6,223.1h2.1v16.8h10.6v2h-12.7V223.1z"/>
	<path class="st3" d="M325.1,223.1h2.1v16.8h10.6v2h-12.7V223.1z"/>
	<path class="st3" d="M358,242.2c-1.4,0-2.6-0.3-3.8-0.8c-1.1-0.5-2.1-1.2-3-2c-0.8-0.9-1.5-1.9-2-3.1c-0.5-1.2-0.7-2.4-0.7-3.8
		v-0.1c0-1.3,0.2-2.6,0.7-3.8c0.5-1.2,1.1-2.2,2-3.1c0.8-0.9,1.8-1.6,3-2.1c1.2-0.5,2.4-0.8,3.8-0.8c0.9,0,1.6,0.1,2.3,0.2
		c0.7,0.1,1.3,0.3,1.9,0.6c0.6,0.3,1.1,0.6,1.6,0.9s1,0.8,1.4,1.2l-1.4,1.6c-0.8-0.8-1.7-1.4-2.6-1.8c-0.9-0.5-2-0.7-3.3-0.7
		c-1,0-2,0.2-2.9,0.6c-0.9,0.4-1.7,0.9-2.3,1.6c-0.7,0.7-1.2,1.5-1.5,2.5c-0.4,0.9-0.5,1.9-0.5,3v0.1c0,1.1,0.2,2.1,0.5,3
		c0.4,0.9,0.9,1.8,1.5,2.5c0.7,0.7,1.4,1.2,2.3,1.6c0.9,0.4,1.8,0.6,2.9,0.6c1.3,0,2.4-0.2,3.3-0.7c0.9-0.5,1.8-1.1,2.7-2l1.4,1.4
		c-0.5,0.5-1,1-1.5,1.4c-0.5,0.4-1.1,0.7-1.7,1c-0.6,0.3-1.3,0.5-2,0.7C359.6,242.1,358.9,242.2,358,242.2z"/>
	<path class="st3" d="M377.8,242.2c-1.4,0-2.7-0.3-3.9-0.8c-1.2-0.5-2.2-1.2-3-2.1c-0.8-0.9-1.5-1.9-1.9-3.1
		c-0.5-1.2-0.7-2.4-0.7-3.7v-0.1c0-1.3,0.2-2.5,0.7-3.7c0.5-1.2,1.1-2.2,2-3.1s1.8-1.6,3-2.1c1.2-0.5,2.5-0.8,3.9-0.8
		c1.4,0,2.7,0.3,3.9,0.8c1.2,0.5,2.2,1.2,3,2.1c0.8,0.9,1.5,1.9,1.9,3.1c0.5,1.2,0.7,2.4,0.7,3.7c0,0,0,0,0,0.1
		c0,1.3-0.2,2.5-0.7,3.7c-0.5,1.2-1.1,2.2-2,3.1c-0.8,0.9-1.8,1.6-3,2.1C380.5,241.9,379.2,242.2,377.8,242.2z M377.8,240.2
		c1.1,0,2.1-0.2,3-0.6c0.9-0.4,1.7-1,2.3-1.6c0.6-0.7,1.1-1.5,1.5-2.4c0.4-0.9,0.5-1.9,0.5-3v-0.1c0-1.1-0.2-2.1-0.5-3
		c-0.4-0.9-0.9-1.8-1.5-2.5c-0.7-0.7-1.4-1.3-2.3-1.7s-1.9-0.6-3-0.6s-2.1,0.2-3,0.6c-0.9,0.4-1.7,1-2.3,1.6
		c-0.6,0.7-1.1,1.5-1.5,2.4c-0.4,0.9-0.5,1.9-0.5,3v0.1c0,1.1,0.2,2.1,0.5,3c0.4,0.9,0.9,1.8,1.5,2.5c0.7,0.7,1.4,1.3,2.3,1.7
		S376.8,240.2,377.8,240.2z"/>
	<path class="st3" d="M391.7,223.1h2l11.8,15v-15h2.1v18.8h-1.7l-12.1-15.4v15.4h-2.1V223.1z"/>
	<path class="st3" d="M412.7,223.1h2l11.8,15v-15h2.1v18.8h-1.7l-12.1-15.4v15.4h-2.1V223.1z"/>
	<path class="st3" d="M433.8,223.1h13.6v1.9h-11.4v6.5h10.2v1.9h-10.2v6.6h11.6v1.9h-13.7V223.1z"/>
	<path class="st3" d="M460.2,242.2c-1.4,0-2.6-0.3-3.8-0.8c-1.1-0.5-2.1-1.2-3-2c-0.8-0.9-1.5-1.9-2-3.1c-0.5-1.2-0.7-2.4-0.7-3.8
		v-0.1c0-1.3,0.2-2.6,0.7-3.8c0.5-1.2,1.1-2.2,2-3.1c0.8-0.9,1.8-1.6,3-2.1c1.2-0.5,2.4-0.8,3.8-0.8c0.9,0,1.6,0.1,2.3,0.2
		c0.7,0.1,1.3,0.3,1.9,0.6c0.6,0.3,1.1,0.6,1.6,0.9s1,0.8,1.4,1.2l-1.4,1.6c-0.8-0.8-1.7-1.4-2.6-1.8c-0.9-0.5-2-0.7-3.3-0.7
		c-1,0-2,0.2-2.9,0.6c-0.9,0.4-1.7,0.9-2.3,1.6c-0.7,0.7-1.2,1.5-1.5,2.5c-0.4,0.9-0.5,1.9-0.5,3v0.1c0,1.1,0.2,2.1,0.5,3
		c0.4,0.9,0.9,1.8,1.5,2.5c0.7,0.7,1.4,1.2,2.3,1.6c0.9,0.4,1.8,0.6,2.9,0.6c1.3,0,2.4-0.2,3.3-0.7c0.9-0.5,1.8-1.1,2.7-2l1.4,1.4
		c-0.5,0.5-1,1-1.5,1.4c-0.5,0.4-1.1,0.7-1.7,1c-0.6,0.3-1.3,0.5-2,0.7C461.8,242.1,461,242.2,460.2,242.2z"/>
	<path class="st3" d="M476.2,225h-6.3v-2h14.7v2h-6.3v16.8h-2.1V225z"/>
	<path class="st3" d="M488.5,223.1H502v1.9h-11.4v6.5h10.2v1.9h-10.2v6.6h11.6v1.9h-13.7V223.1z"/>
	<path class="st3" d="M506.3,223.1h6.5c1.5,0,2.8,0.2,4,0.7c1.2,0.5,2.3,1.1,3.2,2s1.6,1.8,2,3c0.5,1.1,0.7,2.4,0.7,3.7v0.1
		c0,1.3-0.2,2.6-0.7,3.7c-0.5,1.1-1.2,2.1-2,3s-1.9,1.5-3.2,2c-1.2,0.5-2.6,0.7-4,0.7h-6.5V223.1z M512.8,239.9
		c1.2,0,2.3-0.2,3.2-0.6c1-0.4,1.8-0.9,2.5-1.6s1.2-1.4,1.6-2.3c0.4-0.9,0.5-1.9,0.5-2.9v-0.1c0-1-0.2-2-0.5-2.9
		c-0.4-0.9-0.9-1.7-1.6-2.4s-1.5-1.2-2.5-1.6c-1-0.4-2-0.6-3.2-0.6h-4.4v14.8H512.8z"/>
</g>
<text transform="matrix(1 0 0 1 2190.9417 369.0372)" style="fill:#CC1719; font-family:'MyriadPro-LightSemiExt'; font-size:24.0689px;"> </text>
<text transform="matrix(1 0 0 1 2196.719 369.0372)" style="fill:#CC1719; font-family:'MyriadPro-LightSemiExt'; font-size:24.0689px;"> </text>
</svg>
