<?xml version="1.0" encoding="utf-8"?>
<!-- Generator: Adobe Illustrator 27.8.0, SVG Export Plug-In . SVG Version: 6.00 Build 0)  -->
<svg version="1.1" id="Layer_1" xmlns="http://www.w3.org/2000/svg" xmlns:xlink="http://www.w3.org/1999/xlink" x="0px" y="0px"
	 viewBox="55 55 1200 130" style="enable-background:new 0 0 1305 241;" xml:space="preserve">
<style type="text/css">
	.st0{fill:#5E69C8;}
	.st1{fill:#3643BA;}
</style>
<g>
	<g>
		<path class="st0" d="M963.2,80.3c-5.9-3.3-12.9-5-21.1-5h-28v83.8h27.1c8.5,0,15.8-1.7,21.8-5.1c6-3.4,10.6-8.2,13.8-14.5
			c3.2-6.3,4.8-13.8,4.8-22.5c0-8.7-1.6-16.2-4.7-22.4C973.6,88.4,969.1,83.6,963.2,80.3z M965.9,133.9c-2.1,4.6-5.3,8.1-9.5,10.5
			c-4.2,2.4-9.5,3.6-15.9,3.6h-13.8V86.3h14.6c6.1,0,11.2,1.2,15.3,3.6c4.1,2.4,7.2,5.8,9.3,10.4c2.1,4.6,3.1,10.2,3.1,16.7
			C969.1,123.7,968,129.3,965.9,133.9z"/>
		<rect x="995.9" y="96.2" class="st0" width="12.2" height="62.8"/>
		<path class="st0" d="M1002.1,71.9c-2.1,0-3.9,0.7-5.5,2.1s-2.3,3.2-2.3,5.2c0,2,0.8,3.7,2.3,5.1s3.3,2.1,5.5,2.1s3.9-0.7,5.5-2.1
			s2.3-3.2,2.3-5.2c0-2-0.8-3.7-2.3-5.1S1004.2,71.9,1002.1,71.9z"/>
		<path class="st0" d="M1066.9,106.4h-0.9c-0.7-1.3-1.8-2.8-3.1-4.5c-1.4-1.7-3.2-3.2-5.6-4.5c-2.4-1.3-5.5-1.9-9.4-1.9
			c-5,0-9.6,1.3-13.5,3.8s-7.1,6.2-9.4,11c-2.3,4.8-3.4,10.5-3.4,17.2c0,6.7,1.2,12.3,3.5,16.9c2.3,4.6,5.4,8,9.4,10.3
			c4,2.3,8.4,3.5,13.4,3.5c3.8,0,7-0.6,9.4-1.8c2.4-1.2,4.3-2.6,5.7-4.3c1.4-1.6,2.4-3.1,3.2-4.5h0.8V160c0,4.9-1.5,8.5-4.5,10.7
			c-3,2.2-6.9,3.4-11.5,3.4c-3.4,0-6.1-0.5-8.3-1.4c-2.1-1-3.8-2.1-5.1-3.5c-1.2-1.3-2.2-2.6-3-3.8l-10.5,4.3
			c1.1,2.6,2.8,4.9,5.1,7.1c2.3,2.2,5.2,3.9,8.8,5.2c3.6,1.3,7.9,2,12.9,2c5.3,0,10.2-0.8,14.4-2.5c4.3-1.7,7.7-4.2,10.2-7.7
			c2.5-3.5,3.8-7.9,3.8-13.3V96.2h-12V106.4z M1064.9,138.4c-1.3,3.1-3.1,5.5-5.6,7.1c-2.4,1.7-5.4,2.5-8.9,2.5
			c-3.6,0-6.7-0.9-9.1-2.6c-2.5-1.7-4.3-4.2-5.6-7.3c-1.3-3.1-1.9-6.7-1.9-10.8c0-4,0.6-7.6,1.9-10.9c1.2-3.2,3.1-5.8,5.5-7.7
			s5.5-2.8,9.2-2.8c3.6,0,6.6,0.9,9,2.7s4.3,4.3,5.5,7.5c1.3,3.2,1.9,6.9,1.9,11.2C1066.8,131.6,1066.2,135.3,1064.9,138.4z"/>
		<path class="st0" d="M1101.1,71.9c-2.1,0-3.9,0.7-5.5,2.1s-2.3,3.2-2.3,5.2c0,2,0.8,3.7,2.3,5.1s3.3,2.1,5.5,2.1s3.9-0.7,5.5-2.1
			s2.3-3.2,2.3-5.2c0-2-0.8-3.7-2.3-5.1S1103.3,71.9,1101.1,71.9z"/>
		<rect x="1095" y="96.2" class="st0" width="12.2" height="62.8"/>
		<path class="st0" d="M1149.8,148.8c-0.7,0.1-1.6,0.2-2.6,0.2c-1.3,0-2.6-0.2-3.7-0.6c-1.1-0.4-2.1-1.2-2.8-2.4
			c-0.7-1.2-1.1-3-1.1-5.3v-34.6h12.9v-9.8h-12.9V81.2h-12.2v15.1h-9.2v9.8h9.2v37.1c0,3.8,0.9,6.9,2.6,9.4s4,4.4,6.8,5.6
			c2.8,1.2,5.8,1.8,9,1.7c2,0,3.6-0.2,4.9-0.5c1.3-0.3,2.3-0.6,3-0.8l-2.2-10.1C1151.2,148.6,1150.6,148.7,1149.8,148.8z"/>
		<path class="st0" d="M1206.6,99.5c-2.5-1.6-5.1-2.6-7.9-3.2c-2.8-0.6-5.5-0.9-8-0.9c-3.8,0-7.4,0.5-10.8,1.6s-6.5,2.8-9.1,5.2
			s-4.6,5.4-6,9.3l11.5,2.6c0.9-2.2,2.5-4.2,4.9-6c2.4-1.8,5.6-2.7,9.7-2.7c4,0,6.9,1,8.9,2.9c2,2,3,4.7,3,8.3v0.3
			c0,1.5-0.5,2.5-1.6,3.2s-2.8,1.1-5.1,1.4c-2.3,0.3-5.4,0.6-9.2,1.1c-3,0.4-5.9,0.9-8.8,1.6s-5.5,1.7-7.8,3
			c-2.3,1.3-4.2,3.1-5.5,5.4c-1.4,2.3-2,5.2-2,8.8c0,4.1,0.9,7.6,2.8,10.4c1.9,2.8,4.4,5,7.6,6.5c3.2,1.5,6.8,2.2,10.8,2.2
			c3.5,0,6.4-0.5,8.9-1.5c2.5-1,4.5-2.3,6.1-3.8c1.6-1.5,2.8-3.1,3.6-4.7h0.5v8.6h11.9v-41.7c0-4.6-0.8-8.3-2.4-11.2
			C1211.1,103.3,1209.1,101.1,1206.6,99.5z M1202.8,136.4c0,2.5-0.6,4.8-1.9,7c-1.3,2.2-3.1,3.9-5.5,5.3c-2.4,1.3-5.3,2-8.7,2
			c-3.5,0-6.3-0.8-8.5-2.3c-2.2-1.5-3.4-3.8-3.4-6.9c0-2.2,0.6-3.9,1.7-5.3s2.7-2.3,4.7-3c1.9-0.7,4.1-1.2,6.5-1.5
			c1-0.1,2.3-0.3,3.8-0.5c1.5-0.2,3-0.4,4.6-0.7c1.6-0.3,3-0.6,4.2-0.9c1.2-0.4,2.1-0.8,2.5-1.2V136.4z"/>
		<rect x="1231" y="75.3" class="st0" width="12.2" height="83.8"/>
	</g>
	<g>
		<path class="st1" d="M309,160.5h57.5V142h-35.6v-15.5h31.6v-17.2l-31.6,0V93.7h35.6V75.3l-57.5,0V160.5z M438,123.8
			c-8.3,13.3-16.4,18.8-26.8,18.8c-13.5,0-21.4-9.5-21.4-26c0-15.6,7.2-23.4,18.4-23.4c7.4,0,13.4,3.3,15.3,14.2h21.9
			c-2.4-20.9-15.7-33.8-37-33.8c-24.7,0-40.9,17.5-40.9,44.2c0,26.9,16.2,44.3,42.9,44.3c17.5,0,29.3-7.3,37.2-17.2h29.9v15.5h21.8
			V75.3h-30.9L438,123.8z M477.5,127.9h-19.3l19.3-31.3V127.9z M262.3,75.3h-32v85.2h32c25.4,0,41.7-16.7,41.7-42.6
			S287.7,75.3,262.3,75.3z M262,142h-9.8V93.7h9.8c12.7,0,19.8,8.9,19.8,24.2C281.8,133,274.7,142,262,142z M750.6,73.6
			c-25.7,0-43,17.5-43,44.3s17.3,44.3,43,44.3c25.8,0,43-17.5,43-44.3C793.7,91,776.4,73.6,750.6,73.6z M750.6,142.6
			c-12.7,0-20.6-8.5-20.6-24.7s8-24.7,20.6-24.7c12.7,0,20.6,8.5,20.6,24.7S763.4,142.6,750.6,142.6z M504.8,93.7h21.5v66.7h21.9
			V93.7h21.5V75.3l-64.8,0V93.7z M849.6,75.3v46.9l-28.2-46.9h-22.7v85.2h21.2v-48.9l29.4,48.9h21.5V75.3H849.6z M676.6,75.3h-21.9
			v85.2h54.9V142h-33V75.3z M626.5,107.8H597V75.3h-21.9v85.2H597v-34.3h29.5v34.3h21.9V75.3h-21.9V107.8z"/>
		<path class="st1" d="M168.5,57C121,57,61.8,106.2,61.8,147c0,21.1,16.2,31.7,37.5,31.7c15.7,0,34.7-5.7,53-16.8V80.5
			c-4.9,8.4-27.8,42.1-46.3,60c-9.4,9.2-16.8,13.1-23.3,13.1c-7.2,0-10.6-4.9-10.6-12.1c0-33,55.5-75.8,92.2-75.8
			c15.1,0,24.9,6.7,24.9,19.8c0,12-8.1,27-22,40.8v25.2c24.2-19.1,38.6-43.5,38.6-63.1C206,67.7,189.9,57,168.5,57z"/>
	</g>
</g>
</svg>
