<svg xmlns="http://www.w3.org/2000/svg" width="254.752" height="63.88" viewBox="0 0 254.752 63.88">
    <defs>
        <linearGradient id="linear-gradient" x1=".5" x2=".5" y1="1.476" y2=".103" gradientUnits="objectBoundingBox">
            <stop offset="0" stop-color="#8e153a"/>
            <stop offset="1" stop-color="#fe000d"/>
        </linearGradient>
        <linearGradient id="linear-gradient-2" x1="117.979" x2="119.204" y1="390.403" y2="390.403" gradientUnits="objectBoundingBox">
            <stop offset="0" stop-color="#ce2d60"/>
            <stop offset="1" stop-color="#e73b1d"/>
        </linearGradient>
        <style>
            .cls-1{fill:#e30517}
        </style>
    </defs>
    <g id="Groupe_17910" transform="translate(.001)">
        <g id="Groupe_4726" transform="translate(106.252 15.559)">
            <g id="Groupe_4725">
                <path id="Tracé_2931" d="M373.611 272.446l-6.6-22.867h5.694l3.841 15.546h.09l4.293-15.546h4.971l4.293 15.546h.091l3.841-15.546h5.694l-6.6 22.867H387.8l-4.339-15.32h-.09l-4.339 15.32z" class="cls-1" transform="translate(-367.013 -240.269)"/>
                <path id="Tracé_2932" d="M480.448 261.435h-16.9a5.325 5.325 0 0 0 1.9 4.067 5.733 5.733 0 0 0 4.022 1.537 7.6 7.6 0 0 0 6.6-3.254l4.655 2.711q-3.661 5.6-11.253 5.6a11.244 11.244 0 0 1-8.632-3.435 13.389 13.389 0 0 1 .068-17.15 11.144 11.144 0 0 1 8.564-3.367q10.976.005 10.976 13.291zm-16.9-4.248h11.117a4.208 4.208 0 0 0-1.22-2.711 4.977 4.977 0 0 0-3.977-1.808 5.954 5.954 0 0 0-3.886 1.288 5.741 5.741 0 0 0-2.036 3.231z" class="cls-1" transform="translate(-423.326 -239.382)"/>
                <path id="Tracé_2933" d="M527.788 257.221v-32.176h5.512V236.3a9.3 9.3 0 0 1 6.508-2.486 8.773 8.773 0 0 1 7.14 3.48 14.249 14.249 0 0 1-.016 16.992 8.839 8.839 0 0 1-7.18 3.48 7.971 7.971 0 0 1-6.453-2.757v2.214zm10.756-18.348a4.686 4.686 0 0 0-4.248 2.215 9.988 9.988 0 0 0 0 9.4 4.685 4.685 0 0 0 4.248 2.215 4.793 4.793 0 0 0 4.293-2.215 10.338 10.338 0 0 0 0-9.4 4.794 4.794 0 0 0-4.293-2.214z" class="cls-1" transform="translate(-466.78 -225.045)"/>
                <path id="Tracé_2934" d="M596.148 271.558v-22.866h5.513v2.26a7.722 7.722 0 0 1 6.277-2.8q7.913 0 7.913 7.773v15.636h-5.514v-13.967q0-4.112-3.8-4.112a4.416 4.416 0 0 0-3.434 1.446 6.534 6.534 0 0 0-1.446 4.565v12.066z" class="cls-1" transform="translate(-509.2 -239.382)"/>
                <path id="Tracé_2935" d="M681.24 261.435h-16.9a5.325 5.325 0 0 0 1.9 4.067 5.733 5.733 0 0 0 4.022 1.537 7.6 7.6 0 0 0 6.6-3.254l4.655 2.711q-3.661 5.6-11.253 5.6a11.244 11.244 0 0 1-8.632-3.435 13.389 13.389 0 0 1 .068-17.15 11.143 11.143 0 0 1 8.564-3.367q10.976.005 10.976 13.291zm-16.9-4.248h11.117a4.208 4.208 0 0 0-1.22-2.711 4.978 4.978 0 0 0-3.977-1.808 5.954 5.954 0 0 0-3.886 1.288 5.741 5.741 0 0 0-2.036 3.231z" class="cls-1" transform="translate(-547.926 -239.382)"/>
                <path id="Tracé_2936" d="M725.375 236.276v-8.135h5.514v8.135h4.926v3.977h-4.926v11.569a3.529 3.529 0 0 0 .452 2.079 2.408 2.408 0 0 0 2.034.723l2.44-.271v4.519a22.323 22.323 0 0 1-4.384.543q-6.057 0-6.056-5.514v-13.648h-3.344v-3.977z" class="cls-1" transform="translate(-587.315 -226.966)"/>
            </g>
        </g>
        <path id="Tracé_2972" fill="url(#linear-gradient)" d="M151.313 222.369l-6.123 20.847-7.149-20.847h-17.194l-6.819 20.847-6.488-20.847H83.38l11.277 36.455a50.666 50.666 0 0 1 6.6-.88 1.432 1.432 0 0 1 1.026 2.441l-5.437 5.525 6.291 20.338h4.244c-.075-1.16-.122-2.313-.137-3.441a.288.288 0 0 0-.1-.219c-1.034-.845-4.022-1.453-4.028-1.613-.1-2.5 2.916-5.05 4.481-6.2a.264.264 0 0 0 .1-.179 18.232 18.232 0 0 1 .55-2.477.283.283 0 0 0 0-.175 4.454 4.454 0 0 0-2.29-2.763.283.283 0 0 1-.164-.372c.884-1.847 4.154-2.553 5.522-2.772a.26.26 0 0 0 .167-.1 21.866 21.866 0 0 1 2.214-2.4.284.284 0 0 0 .09-.179 3.858 3.858 0 0 0-.549-2.6.284.284 0 0 1 .064-.4c1.151-.705 2.927-.4 4.323.036a.277.277 0 0 0 .229-.031 35.456 35.456 0 0 1 10-4.235s.044-.025.126-.064l-4.211-3.489a1.111 1.111 0 0 1 .01-1.72l.029-.023a1.116 1.116 0 0 1 1.356-.032 24.723 24.723 0 0 0 9.07 3.958c4.776-.431 4.368 2.944 6.759 5.145a8.094 8.094 0 0 0 3.307 1.819c.081.026 1.02.325 1.7.584.4-.443 1.192-1.215 1.657-1.018.492.209.387 1.657.312 2.322 1.819 1.865.43 4.6.43 4.6l-.925-.062.064.013-.9.884a1.512 1.512 0 0 1-2.525-.713l-.053-.214a.287.287 0 0 0-.259-.216l-7.686-.516a.284.284 0 0 1-.236-.167c-1.4-3.067-3.82-4.471-5.122-4.528-1.324-.057-10.812.407-12.945 9.49-.54 2.3 1.44 10.166 7.663 14.075h.732l1.957-5.112a1.3 1.3 0 0 1 2.419-.03l2.118 5.142h23.971l18.844-63.88z" transform="translate(-83.381 -222.369)"/>
        <path id="Tracé_2973" fill="url(#linear-gradient-2)" d="M219.052 317.246a2.649 2.649 0 0 1-1.678.7 2.175 2.175 0 0 1-1.43-.922 2.117 2.117 0 0 1 1.534-.727 2.691 2.691 0 0 1 1.574.949z" transform="translate(-165.641 -280.65)"/>
    </g>
</svg>
