<svg version="1.2" xmlns="http://www.w3.org/2000/svg" viewBox="0 0 749 137" width="749" height="137"><defs><clipPath clipPathUnits="userSpaceOnUse" id="cp1"><path d="m648.64 87.79l56.34-40.49c11.83-8.5 28.3-5.8 36.8 6.03 8.5 11.83 5.8 28.3-6.03 36.8l-56.34 40.49c-11.83 8.5-28.3 5.8-36.8-6.03-8.49-11.82-5.79-28.3 6.03-36.8z"/></clipPath><clipPath clipPathUnits="userSpaceOnUse" id="cp2"><path d="m643.94 12.08c8.5-11.83 24.97-14.52 36.8-6.03l56.34 40.49c11.83 8.5 14.52 24.97 6.03 36.8-8.5 11.83-24.97 14.52-36.8 6.03l-56.34-40.49c-11.83-8.5-14.53-24.98-6.03-36.8z"/></clipPath></defs><style>.a{fill:#1f1f1f}.b{fill:#f8ab09}.c{fill:#ffd24a}.d{fill:#32a853}.e{fill:#73bb69}.f{fill:#e84436}.g{fill:#517cbe}</style><path fill-rule="evenodd" class="a" d="m198.8 30.1c6.8 3.7 12.1 8.9 15.8 15.5 3.6 6.7 5.5 14.4 5.5 23.1q0 13.1-5.6 23.1c-3.7 6.7-8.9 11.9-15.7 15.6q-10.2 5.6-24.3 5.6h-29.9v-88.6h29.9q14.1 0 24.3 5.6zm1.1 53.6c2.2-4.3 3.3-9.2 3.3-15q0-8.6-3.3-15c-2.2-4.3-5.4-7.6-9.8-9.9q-6.6-3.5-16.3-3.5h-12.6v56.9h12.6c6.5 0 11.9-1.2 16.3-3.6 4.4-2.3 7.7-5.6 9.8-9.9z"/><path fill-rule="evenodd" class="a" d="m277.5 52.2c4.6 2.9 8.1 6.7 10.5 11.5q3.6 7.3 3.6 16.1c0 1.3 0 2.4-0.1 3.4q-0.1 1.4-0.2 2h-47.3c0.3 2.4 1 4.5 2 6.4 1.5 2.9 3.7 5.1 6.3 6.7 2.7 1.5 5.1 2.3 9 2.3q5.8 0 9.8-2.6c2.6-1.6 4.7-3.8 6.2-6.3l13.1 6.4q-4.4 7.8-11.6 12.3c-4.8 3-11.4 4.5-17.7 4.5q-9.5 0-17-4.3-7.5-4.4-11.7-11.9c-2.9-5-4.3-11.2-4.3-17.2 0-6 1.4-11.6 4.2-16.7 2.8-5.1 6.6-9.2 11.5-12.3 4.9-3.1 9.9-4.6 16.7-4.6q10.1 0 17.1 4.3zm-32.9 21.6q0 0 0 0zm0-0.1h31.4c-0.1-1.4-0.5-2.8-1.3-4.3-0.7-1.5-1.7-2.8-3-4.1q-2-1.8-4.8-3c-1.8-0.8-3.2-1.1-6.4-1.1q-4.7 0-8.6 2.4c-2.6 1.7-4.6 4-6.1 6.9-0.5 1-0.9 2.1-1.2 3.2z"/><path class="a" d="m327.5 90.9h-1l-16-41h-18.4l26.7 63.1h16.1l27-63.1h-18.2z"/><path class="a" d="m369.9 113h16.7v-35.4h35.5v-15.9h-35.5v-21.5h39.5v-15.8h-56.2z"/><path fill-rule="evenodd" class="a" d="m480.4 52.2c4.6 2.9 8.1 6.7 10.5 11.5q3.6 7.3 3.6 16.1c0 1.3-0.1 2.4-0.2 3.4q-0.1 1.4-0.2 2h-47.3c0.4 2.4 1 4.5 2 6.4 1.6 2.9 3.7 5.1 6.4 6.7 2.6 1.5 5.1 2.3 8.9 2.3q5.9 0 9.8-2.6c2.7-1.6 4.7-3.8 6.2-6.3l13.1 6.4q-4.4 7.8-11.6 12.3c-4.7 3-11.3 4.5-17.7 4.5q-9.5 0-17-4.3c-5-2.9-8.9-6.9-11.7-11.9-2.8-5-4.3-11.2-4.3-17.2q0-9 4.2-16.7 4.2-7.6 11.5-12.3c4.9-3.1 10-4.6 16.7-4.6q10.2 0 17.1 4.3zm-32.8 21.6q0 0 0 0h-0.1zm0 0h31.4q-0.1-2.1-1.2-4.4c-0.7-1.4-1.8-2.8-3.1-4q-2-1.9-4.7-3.1c-1.9-0.7-3.2-1.1-6.4-1.1q-4.7 0-8.6 2.4c-2.6 1.7-4.7 4-6.1 6.9-0.5 1-0.9 2.1-1.3 3.3z"/><path class="a" d="m536.3 75.3l-9.3-2.2q-3.4-0.9-5.9-2.6c-1.7-1.2-2.5-2.5-2.5-4.1 0-1.6 0.8-2.8 2.5-3.8q2.4-1.6 6.7-1.6c2.8 0 4.6 0.5 6.7 1.4q3.1 1.5 5.2 5.3l13.8-6.1c-1.5-3.1-3.5-5.7-5.9-7.8q-3.8-3-8.8-4.5c-3.4-1-7.2-1.4-11.4-1.4-4.2 0-8.7 0.7-12.4 2.3q-5.7 2.4-8.9 6.6-3.3 4.2-3.3 9.9c0 3.8 0.8 6.3 2.5 8.9 1.7 2.7 3.9 4.8 6.6 6.5 2.7 1.7 5.6 2.9 8.7 3.5l7.4 1.6c1.8 0.4 3.5 0.8 5.1 1.3 1.6 0.6 3 1.3 4.2 2.3q1.6 1.4 1.6 3.9c0 1.6-1 3.9-3.2 4.7-2.1 0.9-4.5 1.3-7.1 1.3-2.7 0-6.1-0.7-8.5-2.3-2.4-1.5-4.3-3.7-5.7-6.7l-14.4 6.3c1.1 3 2.9 5.8 5.3 8.4q3.6 3.8 9.3 6.2 5.8 2.3 14 2.3c5.4 0 9.4-0.8 13.5-2.5q6-2.5 9.6-7.1c2.4-3.1 3.6-6.8 3.6-10.9 0-4.1-1.6-8.6-4.7-11.9-3.2-3.3-7.9-5.7-14.2-7.1z"/><path class="a" d="m598.9 98.2q-1.8 0.6-3.7 0.5-4.2 0-6.1-2.1-1.8-2.2-1.8-6.8v-26.1h15.4v-13.8h-15.4v-17.8h-16.3v17.8h-11v13.8h11v29.1q0 9.9 5.6 15.5c3.7 3.8 8.8 5.6 15.3 5.6 6.6 0 4-0.1 5.8-0.5q2.8-0.6 5.5-1.6v-15.8q-2.6 1.6-4.3 2.2z"/><g clip-path="url(#cp1)"><path class="b" d="m466.9 283.5l49.3-33.5 10.3-3.5 2.2-5 127.1-87.3 14.6-5.4 2.7-6.3 47.2-33.5 4.8-1.1 3-2 3.3-1.5 11.7-8 36-18.5c0 0-6.4-20.9-14.2-29.8l10.4-9 5-0.8 1.7-6.4 70.8-51.8 2.2-1.5c0 0 3 2.1 2.1 5.2 0 0 3.5 0.9 4.1-2.6 0 0-2.9 0.3-5-3.4 0 0 3.6-3.2 5.4-1.5 0 0 1.3-3.5-2.9-4.3 0 0 0.2 2.8-3 4.8 0 0-3.2-3.4-1.6-5.7 0 0-3.5-1.1-4.8 3.3 0 0 3.5-1.4 4.8 3.2l-76.7 47.2-6.2-1.1-2.9 4-13.4 7.5c0 0-7.5-16.1-22.2-22.2l-6.5 2.2-22.8 21.5-14.5 10.7-3.1 0.8-1.7 3.1-3.6 1.4-2.1 4.5-21.7 14.1c0 0-0.6-1.3-4-3.7 0 0 1.3-13.4-7.1-24.3l-2.1-39.2 2.1-2.8 5.2-1.5c0 0 2-4.5-4.8-12.7 0 0 52.8-36.7 53.3-39.7 0.4-3.1-56 35.7-56 35.7 0 0-4.7-10.3-11-9.4l-2.5 3.2-3.4 1.9-32.4-15.3c0 0-20.6-21.5-29.8-18.3l-4.8 4.3-4.1 1.7-1.2-3.7c0 0 6.2-5.7 11.7-9.2 5.5-3.4 28.1-19.1 28.1-19.1l4.2-0.5 2.4-2.3 3.8-0.7 2.1-2.4c0 0 4.4-3.9 22.1-12.2 17.8-8.4 22.8-11.8 22.8-11.8 0 0-3.9-18-13.7-29l11.7-9.7 3.6-0.8 4-8.2 69.9-49.8c0 0 3.6 2.9 1.7 5.6 0 0 5-0.5 4.2-3.3 0 0-1.7 1.6-4.3-3.4 0 0 3.6-2.9 5.4-1.2 0 0 1.2-3.7-3.1-4.3 0 0 1.3 1.9-2.6 4.5 0 0-2.3-2.4-2.7-5.4 0 0-2.6-0.8-3.5 2.4 0 0 3.2 0 3.9 3.7l-72.6 46-10-0.4-2.1 3.7-13.5 6.9c0 0-11-17.4-22.4-21.7 0 0-16 12.4-28.3 24.2l-11.8 7.9-2.6 2.6-2.9 1.3-1.9 3.5-38.1 26.3-17.5 6.5-5.9 5.9-7.4 7.7-124.7 84.2-7.1-0.2-6.6 8.2-42.8 29.6z"/><path class="c" d="m677.4 128.2l-2.7-7.6c0 0 51.6-39 56.6-36.2 5 2.8-10 14.1-53.9 43.8z"/><path class="c" d="m649.8 87.6l6.1 5.4c0 0 55.3-33.7 54.6-39.3-0.8-5.7-16.8 4.1-60.7 33.9z"/><path class="c" d="m669 111l-5.7-8.5 53-36c0 0 4.3-1.6 6.7 1.7 2.4 3.2-1.2 7-1.2 7z"/><path class="c" d="m551-62.1l-2.7-7.7c0 0 51.6-39 56.6-36.2 5 2.8-10.1 14.1-53.9 43.9z"/><path class="c" d="m523.4-102.8l6.1 5.4c0 0 55.3-33.6 54.6-39.3-0.8-5.7-16.9 4.1-60.7 33.9z"/><path class="c" d="m542.6-79.4l-5.8-8.5 53.1-36c0 0 4.2-1.5 6.6 1.7 2.4 3.2-1.2 7-1.2 7z"/><path class="c" d="m465.1 98.7l9.2 13.6 72.8-50.5c0 0 4.6-5.6 2.4-10.5-2.2-4.9-9.4-3.7-10.8-2.6-1.4 1.2-73.6 50-73.6 50z"/><path class="c" d="m483.1 127.5l5.4 12.2 72-50c0 0 7.4-4.7 3.5-10.5-4.9-7.3-12.9-0.5-12.9-0.5z"/><path class="c" d="m453.5 84l-9.3-9.6 73-48.5c0 0 7.1-5 11.1 0.7 4.9 7.2-4.3 12.2-4.3 12.2z"/><path class="c" d="m501.5-50.9c-3.7 0-6.7-3-6.7-6.7 0-3.8 3-6.8 6.7-6.8 3.8 0 6.8 3 6.8 6.8 0 3.7-3 6.7-6.8 6.7z"/><path class="c" d="m449.7-15.7c-3.8 0-6.8-3-6.8-6.8 0-3.7 3-6.7 6.8-6.7 3.7 0 6.7 3 6.7 6.7 0 3.8-3 6.8-6.7 6.8z"/><path class="c" d="m397.9 19.4c-3.7 0-6.7-3.1-6.7-6.8 0-3.7 3-6.8 6.8-6.8 3.7 0 6.7 3.1 6.7 6.8 0 3.7-3 6.8-6.7 6.8z"/><path class="c" d="m629.7 138.9c-3.7 0-6.8-3-6.8-6.8 0-3.7 3.1-6.7 6.8-6.7 3.7 0 6.8 3 6.8 6.7 0 3.8-3.1 6.8-6.8 6.8z"/><path class="c" d="m577.9 174.1c-3.8 0-6.8-3.1-6.8-6.8 0-3.7 3-6.8 6.8-6.8 3.7 0 6.7 3.1 6.7 6.8 0 3.7-3 6.8-6.7 6.8z"/><path class="c" d="m526.1 209.1c-3.7 0-6.7-3-6.7-6.7 0-3.8 3-6.8 6.7-6.8 3.8 0 6.8 3 6.8 6.8 0 3.7-3 6.7-6.8 6.7z"/><path class="c" d="m358.2 31.5l3.7 5.5-15.7 10.7-3.8-5.5z"/><path class="c" d="m363.2 38.9l3.8 5.6-15.7 10.7-3.8-5.6z"/><path class="c" d="m485.1 221.4l3.8 5.6-15.8 10.6-3.7-5.5z"/><path class="c" d="m490.2 228.9l3.7 5.5-15.7 10.7-3.8-5.6z"/></g><g clip-path="url(#cp2)"><path class="d" d="m634.8 280.3l125.9-9.1 5.4-332.6h-6.8v-3.4h1l-60.6-55.5-59.2 55.6h1.1v3.9h-6.8z"/><path class="e" d="m668.1-54.8h3v4.5h-3z"/><path class="e" d="m673.1-54.8h3v4.5h-3z"/><path class="e" d="m678.3-54.8h3.1v4.5h-3.1z"/><path class="e" d="m683.6-54.8h3.1v4.5h-3.1z"/><path class="e" d="m663.5-54.8h3v4.5h-3z"/><path class="e" d="m694.7-54.8h3v4.5h-3z"/><path class="e" d="m700.3-54.8h3.1v4.5h-3.1z"/><path class="e" d="m706.1-54.8h3v4.5h-3z"/><path class="e" d="m711.8-54.8h3v4.5h-3z"/><path class="e" d="m717.1-54.8h3.1v4.5h-3.1z"/><path class="e" d="m722.6-54.8h3.1v4.5h-3.1z"/><path class="e" d="m728.2-54.8h2.7v4.5h-2.7z"/><path class="e" d="m733.4-54.8h2.2v4.5h-2.2z"/><path class="e" d="m738.2-54.8h2.3v4.5h-2.3z"/><path class="e" d="m742.9-54.8h1.8v4.5h-1.8z"/><path class="e" d="m747.3-54.8h1.4v4.5h-1.4z"/><path class="e" d="m689.1-54.8h3v4.5h-3z"/><path class="e" d="m659.2-54.8h2.6v4.5h-2.6z"/><path class="e" d="m655-54.8h2.6v4.5h-2.6z"/><path class="e" d="m651.5-54.8h2v4.5h-2z"/><path class="e" d="m648.3-54.8h1.6v4.5h-1.6z"/><path class="e" d="m645.5-54.8h1.1v4.5h-1.1z"/><path class="e" d="m643-54.8h0.8v4.5h-0.8z"/><path class="e" d="m640.7-54.8h0.3v4.5h-0.3z"/><path class="e" d="m638.5-54.8h0.1v4.5h-0.1z"/><path class="e" d="m753.1-50.3h-1.7v-4.5h1.7z"/><path class="e" d="m755.9-50.3h-1.1v-4.5h1.1z"/><path class="e" d="m758.4-50.3h-0.8v-4.5h0.8z"/><path class="e" d="m760.7-50.3h-0.3v-4.5h0.3z"/><path class="e" d="m762.8-54.8h0.2v4.5h-0.2z"/><path class="e" d="m668.1-46.5h3v4.6h-3z"/><path class="e" d="m673.1-46.5h3v4.6h-3z"/><path class="e" d="m678.3-46.5h3.1v4.6h-3.1z"/><path class="e" d="m683.6-46.5h3.1v4.6h-3.1z"/><path class="e" d="m663.5-46.5h3v4.6h-3z"/><path class="e" d="m694.7-46.5h3v4.6h-3z"/><path class="e" d="m700.3-46.5h3.1v4.6h-3.1z"/><path class="e" d="m706.1-46.5h3v4.6h-3z"/><path class="e" d="m711.8-46.5h3v4.6h-3z"/><path class="e" d="m717.1-46.5h3.1v4.6h-3.1z"/><path class="e" d="m722.6-46.5h3.1v4.6h-3.1z"/><path class="e" d="m728.2-46.5h2.7v4.6h-2.7z"/><path class="e" d="m733.4-46.5h2.2v4.6h-2.2z"/><path class="e" d="m738.2-46.5h2.3v4.6h-2.3z"/><path class="e" d="m742.9-46.5h1.8v4.6h-1.8z"/><path class="e" d="m747.3-46.5h1.4v4.6h-1.4z"/><path class="e" d="m689.1-46.5h3v4.6h-3z"/><path class="e" d="m659.2-46.5h2.6v4.6h-2.6z"/><path class="e" d="m655-46.5h2.6v4.6h-2.6z"/><path class="e" d="m651.5-46.5h2v4.6h-2z"/><path class="e" d="m648.3-46.5h1.6v4.6h-1.6z"/><path class="e" d="m645.5-46.5h1.1v4.6h-1.1z"/><path class="e" d="m643-46.5h0.8v4.6h-0.8z"/><path class="e" d="m640.7-46.5h0.3v4.6h-0.3z"/><path class="e" d="m638.5-46.5h0.1v4.6h-0.1z"/><path class="e" d="m753.1-41.9h-1.7v-4.6h1.7z"/><path class="e" d="m755.9-41.9h-1.1v-4.6h1.1z"/><path class="e" d="m758.4-41.9h-0.8v-4.6h0.8z"/><path class="e" d="m760.7-41.9h-0.3v-4.6h0.3z"/><path class="e" d="m762.8-46.5h0.2v4.6h-0.2z"/><path class="e" d="m668.1-38.1h3v4.5h-3z"/><path class="e" d="m673.1-38.1h3v4.5h-3z"/><path class="e" d="m678.3-38.1h3.1v4.5h-3.1z"/><path class="e" d="m683.6-38.1h3.1v4.5h-3.1z"/><path class="e" d="m663.5-38.1h3v4.5h-3z"/><path class="e" d="m694.7-38.1h3v4.5h-3z"/><path class="e" d="m700.3-38.1h3.1v4.5h-3.1z"/><path class="e" d="m706.1-38.1h3v4.5h-3z"/><path class="e" d="m711.8-38.1h3v4.5h-3z"/><path class="e" d="m717.1-38.1h3.1v4.5h-3.1z"/><path class="e" d="m722.6-38.1h3.1v4.5h-3.1z"/><path class="e" d="m728.2-38.1h2.7v4.5h-2.7z"/><path class="e" d="m733.4-38.1h2.2v4.5h-2.2z"/><path class="e" d="m738.2-38.1h2.3v4.5h-2.3z"/><path class="e" d="m742.9-38.1h1.8v4.5h-1.8z"/><path class="e" d="m747.3-38.1h1.4v4.5h-1.4z"/><path class="e" d="m689.1-38.1h3v4.5h-3z"/><path class="e" d="m659.2-38.1h2.6v4.5h-2.6z"/><path class="e" d="m655-38.1h2.6v4.5h-2.6z"/><path class="e" d="m651.5-38.1h2v4.5h-2z"/><path class="e" d="m648.3-38.1h1.6v4.5h-1.6z"/><path class="e" d="m645.5-38.1h1.1v4.5h-1.1z"/><path class="e" d="m643-38.1h0.8v4.5h-0.8z"/><path class="e" d="m640.7-38.1h0.3v4.5h-0.3z"/><path class="e" d="m638.5-38.1h0.1v4.5h-0.1z"/><path class="e" d="m753.1-33.6h-1.7v-4.5h1.7z"/><path class="e" d="m755.9-33.6h-1.1v-4.5h1.1z"/><path class="e" d="m758.4-33.6h-0.8v-4.5h0.8z"/><path class="e" d="m760.7-33.6h-0.3v-4.5h0.3z"/><path class="e" d="m762.8-38.1h0.2v4.5h-0.2z"/><path class="e" d="m668.1-29.8h3v4.6h-3z"/><path class="e" d="m673.1-29.8h3v4.6h-3z"/><path class="e" d="m678.3-29.8h3.1v4.6h-3.1z"/><path class="e" d="m683.6-29.8h3.1v4.6h-3.1z"/><path class="e" d="m663.5-29.8h3v4.6h-3z"/><path class="e" d="m694.7-29.8h3v4.6h-3z"/><path class="e" d="m700.3-29.8h3.1v4.6h-3.1z"/><path class="e" d="m706.1-29.8h3v4.6h-3z"/><path class="e" d="m711.8-29.8h3v4.6h-3z"/><path class="e" d="m717.1-29.8h3.1v4.6h-3.1z"/><path class="e" d="m722.6-29.8h3.1v4.6h-3.1z"/><path class="e" d="m728.2-29.8h2.7v4.6h-2.7z"/><path class="e" d="m733.4-29.8h2.2v4.6h-2.2z"/><path class="e" d="m738.2-29.8h2.3v4.6h-2.3z"/><path class="e" d="m742.9-29.8h1.8v4.6h-1.8z"/><path class="e" d="m747.3-29.8h1.4v4.6h-1.4z"/><path class="e" d="m689.1-29.8h3v4.6h-3z"/><path class="e" d="m659.2-29.8h2.6v4.6h-2.6z"/><path class="e" d="m655-29.8h2.6v4.6h-2.6z"/><path class="e" d="m651.5-29.8h2v4.6h-2z"/><path class="e" d="m648.3-29.8h1.6v4.6h-1.6z"/><path class="e" d="m645.5-29.8h1.1v4.6h-1.1z"/><path class="e" d="m643-29.8h0.8v4.6h-0.8z"/><path class="e" d="m640.7-29.8h0.3v4.6h-0.3z"/><path class="e" d="m638.5-29.8h0.1v4.6h-0.1z"/><path class="e" d="m753.1-25.2h-1.7v-4.6h1.7z"/><path class="e" d="m755.9-25.2h-1.1v-4.6h1.1z"/><path class="e" d="m758.4-25.2h-0.8v-4.6h0.8z"/><path class="e" d="m760.7-25.2h-0.3v-4.6h0.3z"/><path class="e" d="m762.8-29.8h0.2v4.6h-0.2z"/><path class="e" d="m668.1-21.4h3v4.6h-3z"/><path class="e" d="m673.1-21.4h3v4.6h-3z"/><path class="e" d="m678.3-21.4h3.1v4.6h-3.1z"/><path class="e" d="m683.6-21.4h3.1v4.6h-3.1z"/><path class="e" d="m663.5-21.4h3v4.6h-3z"/><path class="e" d="m694.7-21.4h3v4.6h-3z"/><path class="e" d="m700.3-21.4h3.1v4.6h-3.1z"/><path class="e" d="m706.1-21.4h3v4.6h-3z"/><path class="e" d="m711.8-21.4h3v4.6h-3z"/><path class="e" d="m717.1-21.4h3.1v4.6h-3.1z"/><path class="e" d="m722.6-21.4h3.1v4.6h-3.1z"/><path class="e" d="m728.2-21.4h2.7v4.6h-2.7z"/><path class="e" d="m733.4-21.4h2.2v4.6h-2.2z"/><path class="e" d="m738.2-21.4h2.3v4.6h-2.3z"/><path class="e" d="m742.9-21.4h1.8v4.6h-1.8z"/><path class="e" d="m747.3-21.4h1.4v4.6h-1.4z"/><path class="e" d="m689.1-21.4h3v4.6h-3z"/><path class="e" d="m659.2-21.4h2.6v4.6h-2.6z"/><path class="e" d="m655-21.4h2.6v4.6h-2.6z"/><path class="e" d="m651.5-21.4h2v4.6h-2z"/><path class="e" d="m648.3-21.4h1.6v4.6h-1.6z"/><path class="e" d="m645.5-21.4h1.1v4.6h-1.1z"/><path class="e" d="m643-21.4h0.8v4.6h-0.8z"/><path class="e" d="m640.7-21.4h0.3v4.6h-0.3z"/><path class="e" d="m638.5-21.4h0.1v4.6h-0.1z"/><path class="e" d="m753.1-16.8h-1.7v-4.6h1.7z"/><path class="e" d="m755.9-16.8h-1.1v-4.6h1.1z"/><path class="e" d="m758.4-16.8h-0.8v-4.6h0.8z"/><path class="e" d="m760.7-16.8h-0.3v-4.6h0.3z"/><path class="e" d="m762.8-21.4h0.2v4.6h-0.2z"/><path class="e" d="m668.1-13h3v4.5h-3z"/><path class="e" d="m673.1-13h3v4.5h-3z"/><path class="e" d="m678.3-13h3.1v4.5h-3.1z"/><path class="e" d="m683.6-13h3.1v4.5h-3.1z"/><path class="e" d="m663.5-13h3v4.5h-3z"/><path class="e" d="m694.7-13h3v4.5h-3z"/><path class="e" d="m700.3-13h3.1v4.5h-3.1z"/><path class="e" d="m706.1-13h3v4.5h-3z"/><path class="e" d="m711.8-13h3v4.5h-3z"/><path class="e" d="m717.1-13h3.1v4.5h-3.1z"/><path class="e" d="m722.6-13h3.1v4.5h-3.1z"/><path class="e" d="m728.2-13h2.7v4.5h-2.7z"/><path class="e" d="m733.4-13h2.2v4.5h-2.2z"/><path class="e" d="m738.2-13h2.3v4.5h-2.3z"/><path class="e" d="m742.9-13h1.8v4.5h-1.8z"/><path class="e" d="m747.3-13h1.4v4.5h-1.4z"/><path class="e" d="m689.1-13h3v4.5h-3z"/><path class="e" d="m659.2-13h2.6v4.5h-2.6z"/><path class="e" d="m655-13h2.6v4.5h-2.6z"/><path class="e" d="m651.5-13h2v4.5h-2z"/><path class="e" d="m648.3-13h1.6v4.5h-1.6z"/><path class="e" d="m645.5-13h1.1v4.5h-1.1z"/><path class="e" d="m643-13h0.8v4.5h-0.8z"/><path class="e" d="m640.7-13h0.3v4.5h-0.3z"/><path class="e" d="m638.5-13h0.1v4.5h-0.1z"/><path class="e" d="m753.1-8.5h-1.7v-4.5h1.7z"/><path class="e" d="m755.9-8.5h-1.1v-4.5h1.1z"/><path class="e" d="m758.4-8.5h-0.8v-4.5h0.8z"/><path class="e" d="m760.7-8.5h-0.3v-4.5h0.3z"/><path class="e" d="m762.8-13h0.2v4.5h-0.2z"/><path class="e" d="m668.1-4.7h3v4.6h-3z"/><path class="e" d="m673.1-4.7h3v4.6h-3z"/><path class="e" d="m678.3-4.7h3.1v4.6h-3.1z"/><path class="e" d="m683.6-4.7h3.1v4.6h-3.1z"/><path class="e" d="m663.5-4.7h3v4.6h-3z"/><path class="e" d="m694.7-4.7h3v4.6h-3z"/><path class="e" d="m700.3-4.7h3.1v4.6h-3.1z"/><path class="e" d="m706.1-4.7h3v4.6h-3z"/><path class="e" d="m711.8-4.7h3v4.6h-3z"/><path class="e" d="m717.1-4.7h3.1v4.6h-3.1z"/><path class="e" d="m722.6-4.7h3.1v4.6h-3.1z"/><path class="e" d="m728.2-4.7h2.7v4.6h-2.7z"/><path class="e" d="m733.4-4.7h2.2v4.6h-2.2z"/><path class="e" d="m738.2-4.7h2.3v4.6h-2.3z"/><path class="e" d="m742.9-4.7h1.8v4.6h-1.8z"/><path class="e" d="m747.3-4.7h1.4v4.6h-1.4z"/><path class="e" d="m689.1-4.7h3v4.6h-3z"/><path class="e" d="m659.2-4.7h2.6v4.6h-2.6z"/><path class="e" d="m655-4.7h2.6v4.6h-2.6z"/><path class="e" d="m651.5-4.7h2v4.6h-2z"/><path class="e" d="m648.3-4.7h1.6v4.6h-1.6z"/><path class="e" d="m645.5-4.7h1.1v4.6h-1.1z"/><path class="e" d="m643-4.7h0.8v4.6h-0.8z"/><path class="e" d="m640.7-4.7h0.3v4.6h-0.3z"/><path class="e" d="m638.5-4.7h0.1v4.6h-0.1z"/><path class="e" d="m753.1-0.1h-1.7v-4.6h1.7z"/><path class="e" d="m755.9-0.1h-1.1v-4.6h1.1z"/><path class="e" d="m758.4-0.1h-0.8v-4.6h0.8z"/><path class="e" d="m760.7-0.1h-0.3v-4.6h0.3z"/><path class="e" d="m762.8-4.7h0.2v4.6h-0.2z"/><path class="e" d="m668.1 3.7h3v4.5h-3z"/><path class="e" d="m673.1 3.7h3v4.5h-3z"/><path class="e" d="m678.3 3.7h3.1v4.5h-3.1z"/><path class="e" d="m683.6 3.7h3.1v4.5h-3.1z"/><path class="e" d="m663.5 3.7h3v4.5h-3z"/><path class="e" d="m694.7 3.7h3v4.5h-3z"/><path class="e" d="m700.3 3.7h3.1v4.5h-3.1z"/><path class="e" d="m706.1 3.7h3v4.5h-3z"/><path class="e" d="m711.8 3.7h3v4.5h-3z"/><path class="e" d="m717.1 3.7h3.1v4.5h-3.1z"/><path class="e" d="m722.6 3.7h3.1v4.5h-3.1z"/><path class="e" d="m728.2 3.7h2.7v4.5h-2.7z"/><path class="e" d="m733.4 3.7h2.2v4.5h-2.2z"/><path class="e" d="m738.2 3.7h2.3v4.5h-2.3z"/><path class="e" d="m742.9 3.7h1.8v4.5h-1.8z"/><path class="e" d="m747.3 3.7h1.4v4.5h-1.4z"/><path class="e" d="m689.1 3.7h3v4.5h-3z"/><path class="e" d="m659.2 3.7h2.6v4.5h-2.6z"/><path class="e" d="m655 3.7h2.6v4.5h-2.6z"/><path class="e" d="m651.5 3.7h2v4.5h-2z"/><path class="e" d="m648.3 3.7h1.6v4.5h-1.6z"/><path class="e" d="m645.5 3.7h1.1v4.5h-1.1z"/><path class="e" d="m643 3.7h0.8v4.5h-0.8z"/><path class="e" d="m640.7 3.7h0.3v4.5h-0.3z"/><path class="e" d="m638.5 3.7h0.1v4.5h-0.1z"/><path class="e" d="m753.1 8.2h-1.7v-4.5h1.7z"/><path class="e" d="m755.9 8.2h-1.1v-4.5h1.1z"/><path class="e" d="m758.4 8.2h-0.8v-4.5h0.8z"/><path class="e" d="m760.7 8.2h-0.3v-4.5h0.3z"/><path class="e" d="m762.8 3.7h0.2v4.5h-0.2z"/><path class="e" d="m668.1 12h3v4.6h-3z"/><path class="e" d="m673.1 12h3v4.6h-3z"/><path class="e" d="m678.3 12h3.1v4.6h-3.1z"/><path class="e" d="m683.6 12h3.1v4.6h-3.1z"/><path class="e" d="m663.5 12h3v4.6h-3z"/><path class="e" d="m694.7 12h3v4.6h-3z"/><path class="e" d="m700.3 12h3.1v4.6h-3.1z"/><path class="e" d="m706.1 12h3v4.6h-3z"/><path class="e" d="m711.8 12h3v4.6h-3z"/><path class="e" d="m717.1 12h3.1v4.6h-3.1z"/><path class="e" d="m722.6 12h3.1v4.6h-3.1z"/><path class="e" d="m728.2 12h2.7v4.6h-2.7z"/><path class="e" d="m733.4 12h2.2v4.6h-2.2z"/><path class="e" d="m738.2 12h2.3v4.6h-2.3z"/><path class="e" d="m742.9 12h1.8v4.6h-1.8z"/><path class="e" d="m747.3 12h1.4v4.6h-1.4z"/><path class="e" d="m689.1 12h3v4.6h-3z"/><path class="e" d="m659.2 12h2.6v4.6h-2.6z"/><path class="e" d="m655 12h2.6v4.6h-2.6z"/><path class="e" d="m651.5 12h2v4.6h-2z"/><path class="e" d="m648.3 12h1.6v4.6h-1.6z"/><path class="e" d="m645.5 12h1.1v4.6h-1.1z"/><path class="e" d="m643 12h0.8v4.6h-0.8z"/><path class="e" d="m640.7 12h0.3v4.6h-0.3z"/><path class="e" d="m638.5 12h0.1v4.6h-0.1z"/><path class="e" d="m753.1 16.6h-1.7v-4.6h1.7z"/><path class="e" d="m755.9 16.6h-1.1v-4.6h1.1z"/><path class="e" d="m758.4 16.6h-0.8v-4.6h0.8z"/><path class="e" d="m760.7 16.6h-0.3v-4.6h0.3z"/><path class="e" d="m762.8 12h0.2v4.6h-0.2z"/><path class="e" d="m668.1 20.4h3v4.6h-3z"/><path class="e" d="m673.1 20.4h3v4.6h-3z"/><path class="e" d="m678.3 20.4h3.1v4.6h-3.1z"/><path class="e" d="m683.6 20.4h3.1v4.6h-3.1z"/><path class="e" d="m663.5 20.4h3v4.6h-3z"/><path class="e" d="m694.7 20.4h3v4.6h-3z"/><path class="e" d="m700.3 20.4h3.1v4.6h-3.1z"/><path class="e" d="m706.1 20.4h3v4.6h-3z"/><path class="e" d="m711.8 20.4h3v4.6h-3z"/><path class="e" d="m717.1 20.4h3.1v4.6h-3.1z"/><path class="e" d="m722.6 20.4h3.1v4.6h-3.1z"/><path class="e" d="m728.2 20.4h2.7v4.6h-2.7z"/><path class="e" d="m733.4 20.4h2.2v4.6h-2.2z"/><path class="e" d="m738.2 20.4h2.3v4.6h-2.3z"/><path class="e" d="m742.9 20.4h1.8v4.6h-1.8z"/><path class="e" d="m747.3 20.4h1.4v4.6h-1.4z"/><path class="e" d="m689.1 20.4h3v4.6h-3z"/><path class="e" d="m659.2 20.4h2.6v4.6h-2.6z"/><path class="e" d="m655 20.4h2.6v4.6h-2.6z"/><path class="e" d="m651.5 20.4h2v4.6h-2z"/><path class="e" d="m648.3 20.4h1.6v4.6h-1.6z"/><path class="e" d="m645.5 20.4h1.1v4.6h-1.1z"/><path class="e" d="m643 20.4h0.8v4.6h-0.8z"/><path class="e" d="m640.7 20.4h0.3v4.6h-0.3z"/><path class="e" d="m638.5 20.4h0.1v4.6h-0.1z"/><path class="e" d="m753.1 25h-1.7v-4.6h1.7z"/><path class="e" d="m755.9 25h-1.1v-4.6h1.1z"/><path class="e" d="m758.4 25h-0.8v-4.6h0.8z"/><path class="e" d="m760.7 25h-0.3v-4.6h0.3z"/><path class="e" d="m762.8 20.4h0.2v4.6h-0.2z"/><path class="e" d="m668.1 28.8h3v4.5h-3z"/><path class="e" d="m673.1 28.8h3v4.5h-3z"/><path class="e" d="m678.3 28.8h3.1v4.5h-3.1z"/><path class="e" d="m683.6 28.8h3.1v4.5h-3.1z"/><path class="e" d="m663.5 28.8h3v4.5h-3z"/><path class="e" d="m694.7 28.8h3v4.5h-3z"/><path class="e" d="m700.3 28.8h3.1v4.5h-3.1z"/><path class="e" d="m706.1 28.8h3v4.5h-3z"/><path class="e" d="m711.8 28.8h3v4.5h-3z"/><path class="e" d="m717.1 28.8h3.1v4.5h-3.1z"/><path class="e" d="m722.6 28.8h3.1v4.5h-3.1z"/><path class="e" d="m728.2 28.8h2.7v4.5h-2.7z"/><path class="e" d="m733.4 28.8h2.2v4.5h-2.2z"/><path class="e" d="m738.2 28.8h2.3v4.5h-2.3z"/><path class="e" d="m742.9 28.8h1.8v4.5h-1.8z"/><path class="e" d="m747.3 28.8h1.4v4.5h-1.4z"/><path class="e" d="m689.1 28.8h3v4.5h-3z"/><path class="e" d="m659.2 28.8h2.6v4.5h-2.6z"/><path class="e" d="m655 28.8h2.6v4.5h-2.6z"/><path class="e" d="m651.5 28.8h2v4.5h-2z"/><path class="e" d="m648.3 28.8h1.6v4.5h-1.6z"/><path class="e" d="m645.5 28.8h1.1v4.5h-1.1z"/><path class="e" d="m643 28.8h0.8v4.5h-0.8z"/><path class="e" d="m640.7 28.8h0.3v4.5h-0.3z"/><path class="e" d="m638.5 28.8h0.1v4.5h-0.1z"/><path class="e" d="m753.1 33.3h-1.7v-4.5h1.7z"/><path class="e" d="m755.9 33.3h-1.1v-4.5h1.1z"/><path class="e" d="m758.4 33.3h-0.8v-4.5h0.8z"/><path class="e" d="m760.7 33.3h-0.3v-4.5h0.3z"/><path class="e" d="m762.8 28.8h0.2v4.5h-0.2z"/><path class="e" d="m668.1 37.1h3v4.6h-3z"/><path class="e" d="m673.1 37.1h3v4.6h-3z"/><path class="e" d="m678.3 37.1h3.1v4.6h-3.1z"/><path class="e" d="m683.6 37.1h3.1v4.6h-3.1z"/><path class="e" d="m663.5 37.1h3v4.6h-3z"/><path class="e" d="m694.7 37.1h3v4.6h-3z"/><path class="e" d="m700.3 37.1h3.1v4.6h-3.1z"/><path class="e" d="m706.1 37.1h3v4.6h-3z"/><path class="e" d="m711.8 37.1h3v4.6h-3z"/><path class="e" d="m717.1 37.1h3.1v4.6h-3.1z"/><path class="e" d="m722.6 37.1h3.1v4.6h-3.1z"/><path class="e" d="m728.2 37.1h2.7v4.6h-2.7z"/><path class="e" d="m733.4 37.1h2.2v4.6h-2.2z"/><path class="e" d="m738.2 37.1h2.3v4.6h-2.3z"/><path class="e" d="m742.9 37.1h1.8v4.6h-1.8z"/><path class="e" d="m747.3 37.1h1.4v4.6h-1.4z"/><path class="e" d="m689.1 37.1h3v4.6h-3z"/><path class="e" d="m659.2 37.1h2.6v4.6h-2.6z"/><path class="e" d="m655 37.1h2.6v4.6h-2.6z"/><path class="e" d="m651.5 37.1h2v4.6h-2z"/><path class="e" d="m648.3 37.1h1.6v4.6h-1.6z"/><path class="e" d="m645.5 37.1h1.1v4.6h-1.1z"/><path class="e" d="m643 37.1h0.8v4.6h-0.8z"/><path class="e" d="m640.7 37.1h0.3v4.6h-0.3z"/><path class="e" d="m638.5 37.1h0.1v4.6h-0.1z"/><path class="e" d="m753.1 41.7h-1.7v-4.6h1.7z"/><path class="e" d="m755.9 41.7h-1.1v-4.6h1.1z"/><path class="e" d="m758.4 41.7h-0.8v-4.6h0.8z"/><path class="e" d="m760.7 41.7h-0.3v-4.6h0.3z"/><path class="e" d="m762.8 37.1h0.2v4.6h-0.2z"/><path class="e" d="m668.1 45.5h3v4.6h-3z"/><path class="e" d="m673.1 45.5h3v4.6h-3z"/><path class="e" d="m678.3 45.5h3.1v4.6h-3.1z"/><path class="e" d="m683.6 45.5h3.1v4.6h-3.1z"/><path class="e" d="m663.5 45.5h3v4.6h-3z"/><path class="e" d="m694.7 45.5h3v4.6h-3z"/><path class="e" d="m700.3 45.5h3.1v4.6h-3.1z"/><path class="e" d="m706.1 45.5h3v4.6h-3z"/><path class="e" d="m711.8 45.5h3v4.6h-3z"/><path class="e" d="m717.1 45.5h3.1v4.6h-3.1z"/><path class="e" d="m722.6 45.5h3.1v4.6h-3.1z"/><path class="e" d="m728.2 45.5h2.7v4.6h-2.7z"/><path class="e" d="m733.4 45.5h2.2v4.6h-2.2z"/><path class="e" d="m738.2 45.5h2.3v4.6h-2.3z"/><path class="e" d="m742.9 45.5h1.8v4.6h-1.8z"/><path class="e" d="m747.3 45.5h1.4v4.6h-1.4z"/><path class="e" d="m689.1 45.5h3v4.6h-3z"/><path class="e" d="m659.2 45.5h2.6v4.6h-2.6z"/><path class="e" d="m655 45.5h2.6v4.6h-2.6z"/><path class="e" d="m651.5 45.5h2v4.6h-2z"/><path class="e" d="m648.3 45.5h1.6v4.6h-1.6z"/><path class="e" d="m645.5 45.5h1.1v4.6h-1.1z"/><path class="e" d="m643 45.5h0.8v4.6h-0.8z"/><path class="e" d="m640.7 45.5h0.3v4.6h-0.3z"/><path class="e" d="m638.5 45.5h0.1v4.6h-0.1z"/><path class="e" d="m753.1 50h-1.7v-4.5h1.7z"/><path class="e" d="m755.9 50h-1.1v-4.5h1.1z"/><path class="e" d="m758.4 50h-0.8v-4.5h0.8z"/><path class="e" d="m760.7 50h-0.3v-4.5h0.3z"/><path class="e" d="m762.8 45.5h0.2v4.6h-0.2z"/><path class="e" d="m668.1 53.8h3v4.6h-3z"/><path class="e" d="m673.1 53.8h3v4.6h-3z"/><path class="e" d="m678.3 53.8h3.1v4.6h-3.1z"/><path class="e" d="m683.6 53.8h3.1v4.6h-3.1z"/><path class="e" d="m663.5 53.8h3v4.6h-3z"/><path class="e" d="m694.7 53.8h3v4.6h-3z"/><path class="e" d="m700.3 53.8h3.1v4.6h-3.1z"/><path class="e" d="m706.1 53.8h3v4.6h-3z"/><path class="e" d="m711.8 53.8h3v4.6h-3z"/><path class="e" d="m717.1 53.8h3.1v4.6h-3.1z"/><path class="e" d="m722.6 53.8h3.1v4.6h-3.1z"/><path class="e" d="m728.2 53.8h2.7v4.6h-2.7z"/><path class="e" d="m733.4 53.8h2.2v4.6h-2.2z"/><path class="e" d="m738.2 53.8h2.3v4.6h-2.3z"/><path class="e" d="m742.9 53.8h1.8v4.6h-1.8z"/><path class="e" d="m747.3 53.8h1.4v4.6h-1.4z"/><path class="e" d="m689.1 53.8h3v4.6h-3z"/><path class="e" d="m659.2 53.8h2.6v4.6h-2.6z"/><path class="e" d="m655 53.8h2.6v4.6h-2.6z"/><path class="e" d="m651.5 53.8h2v4.6h-2z"/><path class="e" d="m648.3 53.8h1.6v4.6h-1.6z"/><path class="e" d="m645.5 53.8h1.1v4.6h-1.1z"/><path class="e" d="m643 53.8h0.8v4.6h-0.8z"/><path class="e" d="m640.7 53.8h0.3v4.6h-0.3z"/><path class="e" d="m638.5 53.8h0.1v4.6h-0.1z"/><path class="e" d="m753.1 58.4h-1.7v-4.6h1.7z"/><path class="e" d="m755.9 58.4h-1.1v-4.6h1.1z"/><path class="e" d="m758.4 58.4h-0.8v-4.6h0.8z"/><path class="e" d="m760.7 58.4h-0.3v-4.6h0.3z"/><path class="e" d="m762.8 53.8h0.2v4.6h-0.2z"/><path class="e" d="m668.1 62.2h3v4.6h-3z"/><path class="e" d="m673.1 62.2h3v4.6h-3z"/><path class="e" d="m678.3 62.2h3.1v4.6h-3.1z"/><path class="e" d="m683.6 62.2h3.1v4.6h-3.1z"/><path class="e" d="m663.5 62.2h3v4.6h-3z"/><path class="e" d="m694.7 62.2h3v4.6h-3z"/><path class="e" d="m700.3 62.2h3.1v4.6h-3.1z"/><path class="e" d="m706.1 62.2h3v4.6h-3z"/><path class="e" d="m711.8 62.2h3v4.6h-3z"/><path class="e" d="m717.1 62.2h3.1v4.6h-3.1z"/><path class="e" d="m722.6 62.2h3.1v4.6h-3.1z"/><path class="e" d="m728.2 62.2h2.7v4.6h-2.7z"/><path class="e" d="m733.4 62.2h2.2v4.6h-2.2z"/><path class="e" d="m738.2 62.2h2.3v4.6h-2.3z"/><path class="e" d="m742.9 62.2h1.8v4.6h-1.8z"/><path class="e" d="m747.3 62.2h1.4v4.6h-1.4z"/><path class="e" d="m689.1 62.2h3v4.6h-3z"/><path class="e" d="m659.2 62.2h2.6v4.6h-2.6z"/><path class="e" d="m655 62.2h2.6v4.6h-2.6z"/><path class="e" d="m651.5 62.2h2v4.6h-2z"/><path class="e" d="m648.3 62.2h1.6v4.6h-1.6z"/><path class="e" d="m645.5 62.2h1.1v4.6h-1.1z"/><path class="e" d="m643 62.2h0.8v4.6h-0.8z"/><path class="e" d="m640.7 62.2h0.3v4.6h-0.3z"/><path class="e" d="m638.5 62.2h0.1v4.6h-0.1z"/><path class="e" d="m753.1 66.8h-1.7v-4.6h1.7z"/><path class="e" d="m755.9 66.8h-1.1v-4.6h1.1z"/><path class="e" d="m758.4 66.8h-0.8v-4.6h0.8z"/><path class="e" d="m760.7 66.8h-0.3v-4.6h0.3z"/><path class="e" d="m762.8 62.2h0.2v4.6h-0.2z"/><path class="e" d="m668.1 70.6h3v4.5h-3z"/><path class="e" d="m673.1 70.6h3v4.5h-3z"/><path class="e" d="m678.3 70.6h3.1v4.5h-3.1z"/><path class="e" d="m683.6 70.6h3.1v4.5h-3.1z"/><path class="e" d="m663.5 70.6h3v4.5h-3z"/><path class="e" d="m694.7 70.6h3v4.5h-3z"/><path class="e" d="m700.3 70.6h3.1v4.5h-3.1z"/><path class="e" d="m706.1 70.6h3v4.5h-3z"/><path class="e" d="m711.8 70.6h3v4.5h-3z"/><path class="e" d="m717.1 70.6h3.1v4.5h-3.1z"/><path class="e" d="m722.6 70.6h3.1v4.5h-3.1z"/><path class="e" d="m728.2 70.6h2.7v4.5h-2.7z"/><path class="e" d="m733.4 70.6h2.2v4.5h-2.2z"/><path class="e" d="m738.2 70.6h2.3v4.5h-2.3z"/><path class="e" d="m742.9 70.6h1.8v4.5h-1.8z"/><path class="e" d="m747.3 70.6h1.4v4.5h-1.4z"/><path class="e" d="m689.1 70.6h3v4.5h-3z"/><path class="e" d="m659.2 70.6h2.6v4.5h-2.6z"/><path class="e" d="m655 70.6h2.6v4.5h-2.6z"/><path class="e" d="m651.5 70.6h2v4.5h-2z"/><path class="e" d="m648.3 70.6h1.6v4.5h-1.6z"/><path class="e" d="m645.5 70.6h1.1v4.5h-1.1z"/><path class="e" d="m643 70.6h0.8v4.5h-0.8z"/><path class="e" d="m640.7 70.6h0.3v4.5h-0.3z"/><path class="e" d="m638.5 70.6h0.1v4.5h-0.1z"/><path class="e" d="m753.1 75.1h-1.7v-4.6h1.7z"/><path class="e" d="m755.9 75.1h-1.1v-4.6h1.1z"/><path class="e" d="m758.4 75.1h-0.8v-4.6h0.8z"/><path class="e" d="m760.7 75.1h-0.3v-4.6h0.3z"/><path class="e" d="m762.8 70.6h0.2v4.5h-0.2z"/><path class="e" d="m668.1 78.9h3v4.6h-3z"/><path class="e" d="m673.1 78.9h3v4.6h-3z"/><path class="e" d="m678.3 78.9h3.1v4.6h-3.1z"/><path class="e" d="m683.6 78.9h3.1v4.6h-3.1z"/><path class="e" d="m663.5 78.9h3v4.6h-3z"/><path class="e" d="m694.7 78.9h3v4.6h-3z"/><path class="e" d="m700.3 78.9h3.1v4.6h-3.1z"/><path class="e" d="m706.1 78.9h3v4.6h-3z"/><path class="e" d="m711.8 78.9h3v4.6h-3z"/><path class="e" d="m717.1 78.9h3.1v4.6h-3.1z"/><path class="e" d="m722.6 78.9h3.1v4.6h-3.1z"/><path class="e" d="m728.2 78.9h2.7v4.6h-2.7z"/><path class="e" d="m733.4 78.9h2.2v4.6h-2.2z"/><path class="e" d="m738.2 78.9h2.3v4.6h-2.3z"/><path class="e" d="m742.9 78.9h1.8v4.6h-1.8z"/><path class="e" d="m747.3 78.9h1.4v4.6h-1.4z"/><path class="e" d="m689.1 78.9h3v4.6h-3z"/><path class="e" d="m659.2 78.9h2.6v4.6h-2.6z"/><path class="e" d="m655 78.9h2.6v4.6h-2.6z"/><path class="e" d="m651.5 78.9h2v4.6h-2z"/><path class="e" d="m648.3 78.9h1.6v4.6h-1.6z"/><path class="e" d="m645.5 78.9h1.1v4.6h-1.1z"/><path class="e" d="m643 78.9h0.8v4.6h-0.8z"/><path class="e" d="m640.7 78.9h0.3v4.6h-0.3z"/><path class="e" d="m638.5 78.9h0.1v4.6h-0.1z"/><path class="e" d="m753.1 83.5h-1.7v-4.6h1.7z"/><path class="e" d="m755.9 83.5h-1.1v-4.6h1.1z"/><path class="e" d="m758.4 83.5h-0.8v-4.6h0.8z"/><path class="e" d="m760.7 83.5h-0.3v-4.6h0.3z"/><path class="e" d="m762.8 78.9h0.2v4.6h-0.2z"/><path class="e" d="m668.1 87.3h3v4.5h-3z"/><path class="e" d="m673.1 87.3h3v4.5h-3z"/><path class="e" d="m678.3 87.3h3.1v4.5h-3.1z"/><path class="e" d="m683.6 87.3h3.1v4.5h-3.1z"/><path class="e" d="m663.5 87.3h3v4.5h-3z"/><path class="e" d="m694.7 87.3h3v4.5h-3z"/><path class="e" d="m700.3 87.3h3.1v4.5h-3.1z"/><path class="e" d="m706.1 87.3h3v4.5h-3z"/><path class="e" d="m711.8 87.3h3v4.5h-3z"/><path class="e" d="m717.1 87.3h3.1v4.5h-3.1z"/><path class="e" d="m722.6 87.3h3.1v4.5h-3.1z"/><path class="e" d="m728.2 87.3h2.7v4.5h-2.7z"/><path class="e" d="m733.4 87.3h2.2v4.5h-2.2z"/><path class="e" d="m738.2 87.3h2.3v4.5h-2.3z"/><path class="e" d="m742.9 87.3h1.8v4.5h-1.8z"/><path class="e" d="m747.3 87.3h1.4v4.5h-1.4z"/><path class="e" d="m689.1 87.3h3v4.5h-3z"/><path class="e" d="m659.2 87.3h2.6v4.5h-2.6z"/><path class="e" d="m655 87.3h2.6v4.5h-2.6z"/><path class="e" d="m651.5 87.3h2v4.5h-2z"/><path class="e" d="m648.3 87.3h1.6v4.5h-1.6z"/><path class="e" d="m645.5 87.3h1.1v4.5h-1.1z"/><path class="e" d="m643 87.3h0.8v4.5h-0.8z"/><path class="e" d="m640.7 87.3h0.3v4.5h-0.3z"/><path class="e" d="m638.5 87.3h0.1v4.5h-0.1z"/><path class="e" d="m753.1 91.8h-1.7v-4.5h1.7z"/><path class="e" d="m755.9 91.8h-1.1v-4.5h1.1z"/><path class="e" d="m758.4 91.8h-0.8v-4.5h0.8z"/><path class="e" d="m760.7 91.8h-0.3v-4.5h0.3z"/><path class="e" d="m762.8 87.3h0.2v4.5h-0.2z"/><path class="e" d="m668.1 95.6h3v4.6h-3z"/><path class="e" d="m673.1 95.6h3v4.6h-3z"/><path class="e" d="m678.3 95.6h3.1v4.6h-3.1z"/><path class="e" d="m683.6 95.6h3.1v4.6h-3.1z"/><path class="e" d="m663.5 95.6h3v4.6h-3z"/><path class="e" d="m694.7 95.6h3v4.6h-3z"/><path class="e" d="m700.3 95.6h3.1v4.6h-3.1z"/><path class="e" d="m706.1 95.6h3v4.6h-3z"/><path class="e" d="m711.8 95.6h3v4.6h-3z"/><path class="e" d="m717.1 95.6h3.1v4.6h-3.1z"/><path class="e" d="m722.6 95.6h3.1v4.6h-3.1z"/><path class="e" d="m728.2 95.6h2.7v4.6h-2.7z"/><path class="e" d="m733.4 95.6h2.2v4.6h-2.2z"/><path class="e" d="m738.2 95.6h2.3v4.6h-2.3z"/><path class="e" d="m742.9 95.6h1.8v4.6h-1.8z"/><path class="e" d="m747.3 95.6h1.4v4.6h-1.4z"/><path class="e" d="m689.1 95.6h3v4.6h-3z"/><path class="e" d="m659.2 95.6h2.6v4.6h-2.6z"/><path class="e" d="m655 95.6h2.6v4.6h-2.6z"/><path class="e" d="m651.5 95.6h2v4.6h-2z"/><path class="e" d="m648.3 95.6h1.6v4.6h-1.6z"/><path class="e" d="m645.5 95.6h1.1v4.6h-1.1z"/><path class="e" d="m643 95.6h0.8v4.6h-0.8z"/><path class="e" d="m640.7 95.6h0.3v4.6h-0.3z"/><path class="e" d="m638.5 95.6h0.1v4.6h-0.1z"/><path class="e" d="m753.1 100.2h-1.7v-4.6h1.7z"/><path class="e" d="m755.9 100.2h-1.1v-4.6h1.1z"/><path class="e" d="m758.4 100.2h-0.8v-4.6h0.8z"/><path class="e" d="m760.7 100.2h-0.3v-4.6h0.3z"/><path class="e" d="m762.8 95.6h0.2v4.6h-0.2z"/><path class="e" d="m668.1 104h3v4.6h-3z"/><path class="e" d="m673.1 104h3v4.6h-3z"/><path class="e" d="m678.3 104h3.1v4.6h-3.1z"/><path class="e" d="m683.6 104h3.1v4.6h-3.1z"/><path class="e" d="m663.5 104h3v4.6h-3z"/><path class="e" d="m694.7 104h3v4.6h-3z"/><path class="e" d="m700.3 104h3.1v4.6h-3.1z"/><path class="e" d="m706.1 104h3v4.6h-3z"/><path class="e" d="m711.8 104h3v4.6h-3z"/><path class="e" d="m717.1 104h3.1v4.6h-3.1z"/><path class="e" d="m722.6 104h3.1v4.6h-3.1z"/><path class="e" d="m728.2 104h2.7v4.6h-2.7z"/><path class="e" d="m733.4 104h2.2v4.6h-2.2z"/><path class="e" d="m738.2 104h2.3v4.6h-2.3z"/><path class="e" d="m742.9 104h1.8v4.6h-1.8z"/><path class="e" d="m747.3 104h1.4v4.6h-1.4z"/><path class="e" d="m689.1 104h3v4.6h-3z"/><path class="e" d="m659.2 104h2.6v4.6h-2.6z"/><path class="e" d="m655 104h2.6v4.6h-2.6z"/><path class="e" d="m651.5 104h2v4.6h-2z"/><path class="e" d="m648.3 104h1.6v4.6h-1.6z"/><path class="e" d="m645.5 104h1.1v4.6h-1.1z"/><path class="e" d="m643 104h0.8v4.6h-0.8z"/><path class="e" d="m640.7 104h0.3v4.6h-0.3z"/><path class="e" d="m638.5 104h0.1v4.6h-0.1z"/><path class="e" d="m753.1 108.6h-1.7v-4.6h1.7z"/><path class="e" d="m755.9 108.6h-1.1v-4.6h1.1z"/><path class="e" d="m758.4 108.6h-0.8v-4.6h0.8z"/><path class="e" d="m760.7 108.6h-0.3v-4.6h0.3z"/><path class="e" d="m762.8 104h0.2v4.6h-0.2z"/><path class="e" d="m668.1 112.4h3v4.5h-3z"/><path class="e" d="m673.1 112.4h3v4.5h-3z"/><path class="e" d="m678.3 112.4h3.1v4.5h-3.1z"/><path class="e" d="m683.6 112.4h3.1v4.5h-3.1z"/><path class="e" d="m663.5 112.4h3v4.5h-3z"/><path class="e" d="m694.7 112.4h3v4.5h-3z"/><path class="e" d="m700.3 112.4h3.1v4.5h-3.1z"/><path class="e" d="m706.1 112.4h3v4.5h-3z"/><path class="e" d="m711.8 112.4h3v4.5h-3z"/><path class="e" d="m717.1 112.4h3.1v4.5h-3.1z"/><path class="e" d="m722.6 112.4h3.1v4.5h-3.1z"/><path class="e" d="m728.2 112.4h2.7v4.5h-2.7z"/><path class="e" d="m733.4 112.4h2.2v4.5h-2.2z"/><path class="e" d="m738.2 112.4h2.3v4.5h-2.3z"/><path class="e" d="m742.9 112.4h1.8v4.5h-1.8z"/><path class="e" d="m747.3 112.4h1.4v4.5h-1.4z"/><path class="e" d="m689.1 112.4h3v4.5h-3z"/><path class="e" d="m659.2 112.4h2.6v4.5h-2.6z"/><path class="e" d="m655 112.4h2.6v4.5h-2.6z"/><path class="e" d="m651.5 112.4h2v4.5h-2z"/><path class="e" d="m648.3 112.4h1.6v4.5h-1.6z"/><path class="e" d="m645.5 112.4h1.1v4.5h-1.1z"/><path class="e" d="m643 112.4h0.8v4.5h-0.8z"/><path class="e" d="m640.7 112.4h0.3v4.5h-0.3z"/><path class="e" d="m638.5 112.4h0.1v4.5h-0.1z"/><path class="e" d="m753.1 116.9h-1.7v-4.6h1.7z"/><path class="e" d="m755.9 116.9h-1.1v-4.6h1.1z"/><path class="e" d="m758.4 116.9h-0.8v-4.6h0.8z"/><path class="e" d="m760.7 116.9h-0.3v-4.6h0.3z"/><path class="e" d="m762.8 112.4h0.2v4.5h-0.2z"/><path class="e" d="m668.1 120.7h3v4.6h-3z"/><path class="e" d="m673.1 120.7h3v4.6h-3z"/><path class="e" d="m678.3 120.7h3.1v4.6h-3.1z"/><path class="e" d="m683.6 120.7h3.1v4.6h-3.1z"/><path class="e" d="m663.5 120.7h3v4.6h-3z"/><path class="e" d="m694.7 120.7h3v4.6h-3z"/><path class="e" d="m700.3 120.7h3.1v4.6h-3.1z"/><path class="e" d="m706.1 120.7h3v4.6h-3z"/><path class="e" d="m711.8 120.7h3v4.6h-3z"/><path class="e" d="m717.1 120.7h3.1v4.6h-3.1z"/><path class="e" d="m722.6 120.7h3.1v4.6h-3.1z"/><path class="e" d="m728.2 120.7h2.7v4.6h-2.7z"/><path class="e" d="m733.4 120.7h2.2v4.6h-2.2z"/><path class="e" d="m738.2 120.7h2.3v4.6h-2.3z"/><path class="e" d="m742.9 120.7h1.8v4.6h-1.8z"/><path class="e" d="m747.3 120.7h1.4v4.6h-1.4z"/><path class="e" d="m689.1 120.7h3v4.6h-3z"/><path class="e" d="m659.2 120.7h2.6v4.6h-2.6z"/><path class="e" d="m655 120.7h2.6v4.6h-2.6z"/><path class="e" d="m651.5 120.7h2v4.6h-2z"/><path class="e" d="m648.3 120.7h1.6v4.6h-1.6z"/><path class="e" d="m645.5 120.7h1.1v4.6h-1.1z"/><path class="e" d="m643 120.7h0.8v4.6h-0.8z"/><path class="e" d="m640.7 120.7h0.3v4.6h-0.3z"/><path class="e" d="m638.5 120.7h0.1v4.6h-0.1z"/><path class="e" d="m753.1 125.3h-1.7v-4.6h1.7z"/><path class="e" d="m755.9 125.3h-1.1v-4.6h1.1z"/><path class="e" d="m758.4 125.3h-0.8v-4.6h0.8z"/><path class="e" d="m760.7 125.3h-0.3v-4.6h0.3z"/><path class="e" d="m762.8 120.7h0.2v4.6h-0.2z"/><path class="e" d="m668.1 129.1h3v4.5h-3z"/><path class="e" d="m673.1 129.1h3v4.5h-3z"/><path class="e" d="m678.3 129.1h3.1v4.5h-3.1z"/><path class="e" d="m683.6 129.1h3.1v4.5h-3.1z"/><path class="e" d="m663.5 129.1h3v4.5h-3z"/><path class="e" d="m694.7 129.1h3v4.5h-3z"/><path class="e" d="m700.3 129.1h3.1v4.5h-3.1z"/><path class="e" d="m706.1 129.1h3v4.5h-3z"/><path class="e" d="m711.8 129.1h3v4.5h-3z"/><path class="e" d="m717.1 129.1h3.1v4.5h-3.1z"/><path class="e" d="m722.6 129.1h3.1v4.5h-3.1z"/><path class="e" d="m728.2 129.1h2.7v4.5h-2.7z"/><path class="e" d="m733.4 129.1h2.2v4.5h-2.2z"/><path class="e" d="m738.2 129.1h2.3v4.5h-2.3z"/><path class="e" d="m742.9 129.1h1.8v4.5h-1.8z"/><path class="e" d="m747.3 129.1h1.4v4.5h-1.4z"/><path class="e" d="m689.1 129.1h3v4.5h-3z"/><path class="e" d="m659.2 129.1h2.6v4.5h-2.6z"/><path class="e" d="m655 129.1h2.6v4.5h-2.6z"/><path class="e" d="m651.5 129.1h2v4.5h-2z"/><path class="e" d="m648.3 129.1h1.6v4.5h-1.6z"/><path class="e" d="m645.5 129.1h1.1v4.5h-1.1z"/><path class="e" d="m643 129.1h0.8v4.5h-0.8z"/><path class="e" d="m640.7 129.1h0.3v4.5h-0.3z"/><path class="e" d="m638.5 129.1h0.1v4.5h-0.1z"/><path class="e" d="m753.1 133.6h-1.7v-4.5h1.7z"/><path class="e" d="m755.9 133.6h-1.1v-4.5h1.1z"/><path class="e" d="m758.4 133.6h-0.8v-4.5h0.8z"/><path class="e" d="m760.7 133.6h-0.3v-4.5h0.3z"/><path class="e" d="m762.8 129.1h0.2v4.5h-0.2z"/><path class="e" d="m668.1 137.4h3v4.6h-3z"/><path class="e" d="m673.1 137.4h3v4.6h-3z"/><path class="e" d="m678.3 137.4h3.1v4.6h-3.1z"/><path class="e" d="m683.6 137.4h3.1v4.6h-3.1z"/><path class="e" d="m663.5 137.4h3v4.6h-3z"/><path class="e" d="m694.7 137.4h3v4.6h-3z"/><path class="e" d="m700.3 137.4h3.1v4.6h-3.1z"/><path class="e" d="m706.1 137.4h3v4.6h-3z"/><path class="e" d="m711.8 137.4h3v4.6h-3z"/><path class="e" d="m717.1 137.4h3.1v4.6h-3.1z"/><path class="e" d="m722.6 137.4h3.1v4.6h-3.1z"/><path class="e" d="m728.2 137.4h2.7v4.6h-2.7z"/><path class="e" d="m733.4 137.4h2.2v4.6h-2.2z"/><path class="e" d="m738.2 137.4h2.3v4.6h-2.3z"/><path class="e" d="m742.9 137.4h1.8v4.6h-1.8z"/><path class="e" d="m747.3 137.4h1.4v4.6h-1.4z"/><path class="e" d="m689.1 137.4h3v4.6h-3z"/><path class="e" d="m659.2 137.4h2.6v4.6h-2.6z"/><path class="e" d="m655 137.4h2.6v4.6h-2.6z"/><path class="e" d="m651.5 137.4h2v4.6h-2z"/><path class="e" d="m648.3 137.4h1.6v4.6h-1.6z"/><path class="e" d="m645.5 137.4h1.1v4.6h-1.1z"/><path class="e" d="m643 137.4h0.8v4.6h-0.8z"/><path class="e" d="m640.7 137.4h0.3v4.6h-0.3z"/><path class="e" d="m638.5 137.4h0.1v4.6h-0.1z"/><path class="e" d="m753.1 142h-1.7v-4.6h1.7z"/><path class="e" d="m755.9 142h-1.1v-4.6h1.1z"/><path class="e" d="m758.4 142h-0.8v-4.6h0.8z"/><path class="e" d="m760.7 142h-0.3v-4.6h0.3z"/><path class="e" d="m762.8 137.4h0.2v4.6h-0.2z"/><path class="e" d="m668.1 145.8h3v4.6h-3z"/><path class="e" d="m673.1 145.8h3v4.6h-3z"/><path class="e" d="m678.3 145.8h3.1v4.6h-3.1z"/><path class="e" d="m683.6 145.8h3.1v4.6h-3.1z"/><path class="e" d="m663.5 145.8h3v4.6h-3z"/><path class="e" d="m694.7 145.8h3v4.6h-3z"/><path class="e" d="m700.3 145.8h3.1v4.6h-3.1z"/><path class="e" d="m706.1 145.8h3v4.6h-3z"/><path class="e" d="m711.8 145.8h3v4.6h-3z"/><path class="e" d="m717.1 145.8h3.1v4.6h-3.1z"/><path class="e" d="m722.6 145.8h3.1v4.6h-3.1z"/><path class="e" d="m728.2 145.8h2.7v4.6h-2.7z"/><path class="e" d="m733.4 145.8h2.2v4.6h-2.2z"/><path class="e" d="m738.2 145.8h2.3v4.6h-2.3z"/><path class="e" d="m742.9 145.8h1.8v4.6h-1.8z"/><path class="e" d="m747.3 145.8h1.4v4.6h-1.4z"/><path class="e" d="m689.1 145.8h3v4.6h-3z"/><path class="e" d="m659.2 145.8h2.6v4.6h-2.6z"/><path class="e" d="m655 145.8h2.6v4.6h-2.6z"/><path class="e" d="m651.5 145.8h2v4.6h-2z"/><path class="e" d="m648.3 145.8h1.6v4.6h-1.6z"/><path class="e" d="m645.5 145.8h1.1v4.6h-1.1z"/><path class="e" d="m643 145.8h0.8v4.6h-0.8z"/><path class="e" d="m640.7 145.8h0.3v4.6h-0.3z"/><path class="e" d="m638.5 145.8h0.1v4.6h-0.1z"/><path class="e" d="m753.1 150.4h-1.7v-4.6h1.7z"/><path class="e" d="m755.9 150.4h-1.1v-4.6h1.1z"/><path class="e" d="m758.4 150.4h-0.8v-4.6h0.8z"/><path class="e" d="m760.7 150.4h-0.3v-4.6h0.3z"/><path class="e" d="m762.8 145.8h0.2v4.6h-0.2z"/><path class="e" d="m668.1 154.1h3v4.6h-3z"/><path class="e" d="m673.1 154.1h3v4.6h-3z"/><path class="e" d="m678.3 154.1h3.1v4.6h-3.1z"/><path class="e" d="m683.6 154.1h3.1v4.6h-3.1z"/><path class="e" d="m663.5 154.1h3v4.6h-3z"/><path class="e" d="m694.7 154.1h3v4.6h-3z"/><path class="e" d="m700.3 154.1h3.1v4.6h-3.1z"/><path class="e" d="m706.1 154.1h3v4.6h-3z"/><path class="e" d="m711.8 154.1h3v4.6h-3z"/><path class="e" d="m717.1 154.1h3.1v4.6h-3.1z"/><path class="e" d="m722.6 154.1h3.1v4.6h-3.1z"/><path class="e" d="m728.2 154.1h2.7v4.6h-2.7z"/><path class="e" d="m733.4 154.1h2.2v4.6h-2.2z"/><path class="e" d="m738.2 154.1h2.3v4.6h-2.3z"/><path class="e" d="m742.9 154.1h1.8v4.6h-1.8z"/><path class="e" d="m747.3 154.1h1.4v4.6h-1.4z"/><path class="e" d="m689.1 154.1h3v4.6h-3z"/><path class="e" d="m659.2 154.1h2.6v4.6h-2.6z"/><path class="e" d="m655 154.1h2.6v4.6h-2.6z"/><path class="e" d="m651.5 154.1h2v4.6h-2z"/><path class="e" d="m648.3 154.1h1.6v4.6h-1.6z"/><path class="e" d="m645.5 154.1h1.1v4.6h-1.1z"/><path class="e" d="m643 154.1h0.8v4.6h-0.8z"/><path class="e" d="m640.7 154.1h0.3v4.6h-0.3z"/><path class="e" d="m638.5 154.1h0.1v4.6h-0.1z"/><path class="e" d="m753.1 158.7h-1.7v-4.5h1.7z"/><path class="e" d="m755.9 158.7h-1.1v-4.5h1.1z"/><path class="e" d="m758.4 158.7h-0.8v-4.5h0.8z"/><path class="e" d="m760.7 158.7h-0.3v-4.5h0.3z"/><path class="e" d="m762.8 154.1h0.2v4.6h-0.2z"/><path class="e" d="m668.1 162.5h3v4.6h-3z"/><path class="e" d="m673.1 162.5h3v4.6h-3z"/><path class="e" d="m678.3 162.5h3.1v4.6h-3.1z"/><path class="e" d="m683.6 162.5h3.1v4.6h-3.1z"/><path class="e" d="m663.5 162.5h3v4.6h-3z"/><path class="e" d="m694.7 162.5h3v4.6h-3z"/><path class="e" d="m700.3 162.5h3.1v4.6h-3.1z"/><path class="e" d="m706.1 162.5h3v4.6h-3z"/><path class="e" d="m711.8 162.5h3v4.6h-3z"/><path class="e" d="m717.1 162.5h3.1v4.6h-3.1z"/><path class="e" d="m722.6 162.5h3.1v4.6h-3.1z"/><path class="e" d="m728.2 162.5h2.7v4.6h-2.7z"/><path class="e" d="m733.4 162.5h2.2v4.6h-2.2z"/><path class="e" d="m738.2 162.5h2.3v4.6h-2.3z"/><path class="e" d="m742.9 162.5h1.8v4.6h-1.8z"/><path class="e" d="m747.3 162.5h1.4v4.6h-1.4z"/><path class="e" d="m689.1 162.5h3v4.6h-3z"/><path class="e" d="m659.2 162.5h2.6v4.6h-2.6z"/><path class="e" d="m655 162.5h2.6v4.6h-2.6z"/><path class="e" d="m651.5 162.5h2v4.6h-2z"/><path class="e" d="m648.3 162.5h1.6v4.6h-1.6z"/><path class="e" d="m645.5 162.5h1.1v4.6h-1.1z"/><path class="e" d="m643 162.5h0.8v4.6h-0.8z"/><path class="e" d="m640.7 162.5h0.3v4.6h-0.3z"/><path class="e" d="m638.5 162.5h0.1v4.6h-0.1z"/><path class="e" d="m753.1 167.1h-1.7v-4.6h1.7z"/><path class="e" d="m755.9 167.1h-1.1v-4.6h1.1z"/><path class="e" d="m758.4 167.1h-0.8v-4.6h0.8z"/><path class="e" d="m760.7 167.1h-0.3v-4.6h0.3z"/><path class="e" d="m762.8 162.5h0.2v4.6h-0.2z"/><path class="e" d="m668.1 170.9h3v4.5h-3z"/><path class="e" d="m673.1 170.9h3v4.5h-3z"/><path class="e" d="m678.3 170.9h3.1v4.5h-3.1z"/><path class="e" d="m683.6 170.9h3.1v4.5h-3.1z"/><path class="e" d="m663.5 170.9h3v4.5h-3z"/><path class="e" d="m694.7 170.9h3v4.5h-3z"/><path class="e" d="m700.3 170.9h3.1v4.5h-3.1z"/><path class="e" d="m706.1 170.9h3v4.5h-3z"/><path class="e" d="m711.8 170.9h3v4.5h-3z"/><path class="e" d="m717.1 170.9h3.1v4.5h-3.1z"/><path class="e" d="m722.6 170.9h3.1v4.5h-3.1z"/><path class="e" d="m728.2 170.9h2.7v4.5h-2.7z"/><path class="e" d="m733.4 170.9h2.2v4.5h-2.2z"/><path class="e" d="m738.2 170.9h2.3v4.5h-2.3z"/><path class="e" d="m742.9 170.9h1.8v4.5h-1.8z"/><path class="e" d="m747.3 170.9h1.4v4.5h-1.4z"/><path class="e" d="m689.1 170.9h3v4.5h-3z"/><path class="e" d="m659.2 170.9h2.6v4.5h-2.6z"/><path class="e" d="m655 170.9h2.6v4.5h-2.6z"/><path class="e" d="m651.5 170.9h2v4.5h-2z"/><path class="e" d="m648.3 170.9h1.6v4.5h-1.6z"/><path class="e" d="m645.5 170.9h1.1v4.5h-1.1z"/><path class="e" d="m643 170.9h0.8v4.5h-0.8z"/><path class="e" d="m640.7 170.9h0.3v4.5h-0.3z"/><path class="e" d="m638.5 170.9h0.1v4.5h-0.1z"/><path class="e" d="m753.1 175.4h-1.7v-4.5h1.7z"/><path class="e" d="m755.9 175.4h-1.1v-4.5h1.1z"/><path class="e" d="m758.4 175.4h-0.8v-4.5h0.8z"/><path class="e" d="m760.7 175.4h-0.3v-4.5h0.3z"/><path class="e" d="m762.8 170.9h0.2v4.5h-0.2z"/><path class="e" d="m668.1 179.2h3v4.6h-3z"/><path class="e" d="m673.1 179.2h3v4.6h-3z"/><path class="e" d="m678.3 179.2h3.1v4.6h-3.1z"/><path class="e" d="m683.6 179.2h3.1v4.6h-3.1z"/><path class="e" d="m663.5 179.2h3v4.6h-3z"/><path class="e" d="m694.7 179.2h3v4.6h-3z"/><path class="e" d="m700.3 179.2h3.1v4.6h-3.1z"/><path class="e" d="m706.1 179.2h3v4.6h-3z"/><path class="e" d="m711.8 179.2h3v4.6h-3z"/><path class="e" d="m717.1 179.2h3.1v4.6h-3.1z"/><path class="e" d="m722.6 179.2h3.1v4.6h-3.1z"/><path class="e" d="m728.2 179.2h2.7v4.6h-2.7z"/><path class="e" d="m733.4 179.2h2.2v4.6h-2.2z"/><path class="e" d="m738.2 179.2h2.3v4.6h-2.3z"/><path class="e" d="m742.9 179.2h1.8v4.6h-1.8z"/><path class="e" d="m747.3 179.2h1.4v4.6h-1.4z"/><path class="e" d="m689.1 179.2h3v4.6h-3z"/><path class="e" d="m659.2 179.2h2.6v4.6h-2.6z"/><path class="e" d="m655 179.2h2.6v4.6h-2.6z"/><path class="e" d="m651.5 179.2h2v4.6h-2z"/><path class="e" d="m648.3 179.2h1.6v4.6h-1.6z"/><path class="e" d="m645.5 179.2h1.1v4.6h-1.1z"/><path class="e" d="m643 179.2h0.8v4.6h-0.8z"/><path class="e" d="m640.7 179.2h0.3v4.6h-0.3z"/><path class="e" d="m638.5 179.2h0.1v4.6h-0.1z"/><path class="e" d="m753.1 183.8h-1.7v-4.6h1.7z"/><path class="e" d="m755.9 183.8h-1.1v-4.6h1.1z"/><path class="e" d="m758.4 183.8h-0.8v-4.6h0.8z"/><path class="e" d="m760.7 183.8h-0.3v-4.6h0.3z"/><path class="e" d="m762.8 179.2h0.2v4.6h-0.2z"/><path class="e" d="m668.1 187.6h3v4.6h-3z"/><path class="e" d="m673.1 187.6h3v4.6h-3z"/><path class="e" d="m678.3 187.6h3.1v4.6h-3.1z"/><path class="e" d="m683.6 187.6h3.1v4.6h-3.1z"/><path class="e" d="m663.5 187.6h3v4.6h-3z"/><path class="e" d="m694.7 187.6h3v4.6h-3z"/><path class="e" d="m700.3 187.6h3.1v4.6h-3.1z"/><path class="e" d="m706.1 187.6h3v4.6h-3z"/><path class="e" d="m711.8 187.6h3v4.6h-3z"/><path class="e" d="m717.1 187.6h3.1v4.6h-3.1z"/><path class="e" d="m722.6 187.6h3.1v4.6h-3.1z"/><path class="e" d="m728.2 187.6h2.7v4.6h-2.7z"/><path class="e" d="m733.4 187.6h2.2v4.6h-2.2z"/><path class="e" d="m738.2 187.6h2.3v4.6h-2.3z"/><path class="e" d="m742.9 187.6h1.8v4.6h-1.8z"/><path class="e" d="m747.3 187.6h1.4v4.6h-1.4z"/><path class="e" d="m689.1 187.6h3v4.6h-3z"/><path class="e" d="m659.2 187.6h2.6v4.6h-2.6z"/><path class="e" d="m655 187.6h2.6v4.6h-2.6z"/><path class="e" d="m651.5 187.6h2v4.6h-2z"/><path class="e" d="m648.3 187.6h1.6v4.6h-1.6z"/><path class="e" d="m645.5 187.6h1.1v4.6h-1.1z"/><path class="e" d="m643 187.6h0.8v4.6h-0.8z"/><path class="e" d="m640.7 187.6h0.3v4.6h-0.3z"/><path class="e" d="m638.5 187.6h0.1v4.6h-0.1z"/><path class="e" d="m753.1 192.2h-1.7v-4.6h1.7z"/><path class="e" d="m755.9 192.2h-1.1v-4.6h1.1z"/><path class="e" d="m758.4 192.2h-0.8v-4.6h0.8z"/><path class="e" d="m760.7 192.2h-0.3v-4.6h0.3z"/><path class="e" d="m762.8 187.6h0.2v4.6h-0.2z"/><path class="e" d="m668.1 196h3v4.5h-3z"/><path class="e" d="m673.1 196h3v4.5h-3z"/><path class="e" d="m678.3 196h3.1v4.5h-3.1z"/><path class="e" d="m683.6 196h3.1v4.5h-3.1z"/><path class="e" d="m663.5 196h3v4.5h-3z"/><path class="e" d="m694.7 196h3v4.5h-3z"/><path class="e" d="m700.3 196h3.1v4.5h-3.1z"/><path class="e" d="m706.1 196h3v4.5h-3z"/><path class="e" d="m711.8 196h3v4.5h-3z"/><path class="e" d="m717.1 196h3.1v4.5h-3.1z"/><path class="e" d="m722.6 196h3.1v4.5h-3.1z"/><path class="e" d="m728.2 196h2.7v4.5h-2.7z"/><path class="e" d="m733.4 196h2.2v4.5h-2.2z"/><path class="e" d="m738.2 196h2.3v4.5h-2.3z"/><path class="e" d="m742.9 196h1.8v4.5h-1.8z"/><path class="e" d="m747.3 196h1.4v4.5h-1.4z"/><path class="e" d="m689.1 196h3v4.5h-3z"/><path class="e" d="m659.2 196h2.6v4.5h-2.6z"/><path class="e" d="m655 196h2.6v4.5h-2.6z"/><path class="e" d="m651.5 196h2v4.5h-2z"/><path class="e" d="m648.3 196h1.6v4.5h-1.6z"/><path class="e" d="m645.5 196h1.1v4.5h-1.1z"/><path class="e" d="m643 196h0.8v4.5h-0.8z"/><path class="e" d="m640.7 196h0.3v4.5h-0.3z"/><path class="e" d="m638.5 196h0.1v4.5h-0.1z"/><path class="e" d="m753.1 200.5h-1.7v-4.5h1.7z"/><path class="e" d="m755.9 200.5h-1.1v-4.5h1.1z"/><path class="e" d="m758.4 200.5h-0.8v-4.5h0.8z"/><path class="e" d="m760.7 200.5h-0.3v-4.5h0.3z"/><path class="e" d="m762.8 196h0.2v4.5h-0.2z"/><path class="e" d="m668.1 204.3h3v4.6h-3z"/><path class="e" d="m673.1 204.3h3v4.6h-3z"/><path class="e" d="m678.3 204.3h3.1v4.6h-3.1z"/><path class="e" d="m683.6 204.3h3.1v4.6h-3.1z"/><path class="e" d="m663.5 204.3h3v4.6h-3z"/><path class="e" d="m694.7 204.3h3v4.6h-3z"/><path class="e" d="m700.3 204.3h3.1v4.6h-3.1z"/><path class="e" d="m706.1 204.3h3v4.6h-3z"/><path class="e" d="m711.8 204.3h3v4.6h-3z"/><path class="e" d="m717.1 204.3h3.1v4.6h-3.1z"/><path class="e" d="m722.6 204.3h3.1v4.6h-3.1z"/><path class="e" d="m728.2 204.3h2.7v4.6h-2.7z"/><path class="e" d="m733.4 204.3h2.2v4.6h-2.2z"/><path class="e" d="m738.2 204.3h2.3v4.6h-2.3z"/><path class="e" d="m742.9 204.3h1.8v4.6h-1.8z"/><path class="e" d="m747.3 204.3h1.4v4.6h-1.4z"/><path class="e" d="m689.1 204.3h3v4.6h-3z"/><path class="e" d="m659.2 204.3h2.6v4.6h-2.6z"/><path class="e" d="m655 204.3h2.6v4.6h-2.6z"/><path class="e" d="m651.5 204.3h2v4.6h-2z"/><path class="e" d="m648.3 204.3h1.6v4.6h-1.6z"/><path class="e" d="m645.5 204.3h1.1v4.6h-1.1z"/><path class="e" d="m643 204.3h0.8v4.6h-0.8z"/><path class="e" d="m640.7 204.3h0.3v4.6h-0.3z"/><path class="e" d="m638.5 204.3h0.1v4.6h-0.1z"/><path class="e" d="m753.1 208.9h-1.7v-4.6h1.7z"/><path class="e" d="m755.9 208.9h-1.1v-4.6h1.1z"/><path class="e" d="m758.4 208.9h-0.8v-4.6h0.8z"/><path class="e" d="m760.7 208.9h-0.3v-4.6h0.3z"/><path class="e" d="m762.8 204.3h0.2v4.6h-0.2z"/><path class="e" d="m668.1 212.7h3v4.5h-3z"/><path class="e" d="m673.1 212.7h3v4.5h-3z"/><path class="e" d="m678.3 212.7h3.1v4.5h-3.1z"/><path class="e" d="m683.6 212.7h3.1v4.5h-3.1z"/><path class="e" d="m663.5 212.7h3v4.5h-3z"/><path class="e" d="m694.7 212.7h3v4.5h-3z"/><path class="e" d="m700.3 212.7h3.1v4.5h-3.1z"/><path class="e" d="m706.1 212.7h3v4.5h-3z"/><path class="e" d="m711.8 212.7h3v4.5h-3z"/><path class="e" d="m717.1 212.7h3.1v4.5h-3.1z"/><path class="e" d="m722.6 212.7h3.1v4.5h-3.1z"/><path class="e" d="m728.2 212.7h2.7v4.5h-2.7z"/><path class="e" d="m733.4 212.7h2.2v4.5h-2.2z"/><path class="e" d="m738.2 212.7h2.3v4.5h-2.3z"/><path class="e" d="m742.9 212.7h1.8v4.5h-1.8z"/><path class="e" d="m747.3 212.7h1.4v4.5h-1.4z"/><path class="e" d="m689.1 212.7h3v4.5h-3z"/><path class="e" d="m659.2 212.7h2.6v4.5h-2.6z"/><path class="e" d="m655 212.7h2.6v4.5h-2.6z"/><path class="e" d="m651.5 212.7h2v4.5h-2z"/><path class="e" d="m648.3 212.7h1.6v4.5h-1.6z"/><path class="e" d="m645.5 212.7h1.1v4.5h-1.1z"/><path class="e" d="m643 212.7h0.8v4.5h-0.8z"/><path class="e" d="m640.7 212.7h0.3v4.5h-0.3z"/><path class="e" d="m638.5 212.7h0.1v4.5h-0.1z"/><path class="e" d="m753.1 217.2h-1.7v-4.5h1.7z"/><path class="e" d="m755.9 217.2h-1.1v-4.5h1.1z"/><path class="e" d="m758.4 217.2h-0.8v-4.5h0.8z"/><path class="e" d="m760.7 217.2h-0.3v-4.5h0.3z"/><path class="e" d="m762.8 212.7h0.2v4.5h-0.2z"/><path class="e" d="m668.1 221h3v4.6h-3z"/><path class="e" d="m673.1 221h3v4.6h-3z"/><path class="e" d="m678.3 221h3.1v4.6h-3.1z"/><path class="e" d="m683.6 221h3.1v4.6h-3.1z"/><path class="e" d="m663.5 221h3v4.6h-3z"/><path class="e" d="m694.7 221h3v4.6h-3z"/><path class="e" d="m700.3 221h3.1v4.6h-3.1z"/><path class="e" d="m706.1 221h3v4.6h-3z"/><path class="e" d="m711.8 221h3v4.6h-3z"/><path class="e" d="m717.1 221h3.1v4.6h-3.1z"/><path class="e" d="m722.6 221h3.1v4.6h-3.1z"/><path class="e" d="m728.2 221h2.7v4.6h-2.7z"/><path class="e" d="m733.4 221h2.2v4.6h-2.2z"/><path class="e" d="m738.2 221h2.3v4.6h-2.3z"/><path class="e" d="m742.9 221h1.8v4.6h-1.8z"/><path class="e" d="m747.3 221h1.4v4.6h-1.4z"/><path class="e" d="m689.1 221h3v4.6h-3z"/><path class="e" d="m659.2 221h2.6v4.6h-2.6z"/><path class="e" d="m655 221h2.6v4.6h-2.6z"/><path class="e" d="m651.5 221h2v4.6h-2z"/><path class="e" d="m648.3 221h1.6v4.6h-1.6z"/><path class="e" d="m645.5 221h1.1v4.6h-1.1z"/><path class="e" d="m643 221h0.8v4.6h-0.8z"/><path class="e" d="m640.7 221h0.3v4.6h-0.3z"/><path class="e" d="m638.5 221h0.1v4.6h-0.1z"/><path class="e" d="m753.1 225.6h-1.7v-4.6h1.7z"/><path class="e" d="m755.9 225.6h-1.1v-4.6h1.1z"/><path class="e" d="m758.4 225.6h-0.8v-4.6h0.8z"/><path class="e" d="m760.7 225.6h-0.3v-4.6h0.3z"/><path class="e" d="m762.8 221h0.2v4.6h-0.2z"/><path class="e" d="m668.1 229.4h3v4.6h-3z"/><path class="e" d="m673.1 229.4h3v4.6h-3z"/><path class="e" d="m678.3 229.4h3.1v4.6h-3.1z"/><path class="e" d="m683.6 229.4h3.1v4.6h-3.1z"/><path class="e" d="m663.5 229.4h3v4.6h-3z"/><path class="e" d="m694.7 229.4h3v4.6h-3z"/><path class="e" d="m700.3 229.4h3.1v4.6h-3.1z"/><path class="e" d="m706.1 229.4h3v4.6h-3z"/><path class="e" d="m711.8 229.4h3v4.6h-3z"/><path class="e" d="m717.1 229.4h3.1v4.6h-3.1z"/><path class="e" d="m722.6 229.4h3.1v4.6h-3.1z"/><path class="e" d="m728.2 229.4h2.7v4.6h-2.7z"/><path class="e" d="m733.4 229.4h2.2v4.6h-2.2z"/><path class="e" d="m738.2 229.4h2.3v4.6h-2.3z"/><path class="e" d="m742.9 229.4h1.8v4.6h-1.8z"/><path class="e" d="m747.3 229.4h1.4v4.6h-1.4z"/><path class="e" d="m689.1 229.4h3v4.6h-3z"/><path class="e" d="m659.2 229.4h2.6v4.6h-2.6z"/><path class="e" d="m655 229.4h2.6v4.6h-2.6z"/><path class="e" d="m651.5 229.4h2v4.6h-2z"/><path class="e" d="m648.3 229.4h1.6v4.6h-1.6z"/><path class="e" d="m645.5 229.4h1.1v4.6h-1.1z"/><path class="e" d="m643 229.4h0.8v4.6h-0.8z"/><path class="e" d="m640.7 229.4h0.3v4.6h-0.3z"/><path class="e" d="m638.5 229.4h0.1v4.6h-0.1z"/><path class="e" d="m753.1 234h-1.7v-4.6h1.7z"/><path class="e" d="m755.9 234h-1.1v-4.6h1.1z"/><path class="e" d="m758.4 234h-0.8v-4.6h0.8z"/><path class="e" d="m760.7 234h-0.3v-4.6h0.3z"/><path class="e" d="m762.8 229.4h0.2v4.6h-0.2z"/><path class="e" d="m668.1 237.8l3-0.1v4.6h-3z"/><path class="e" d="m673.1 237.8l3-0.1v4.6h-3z"/><path class="e" d="m678.3 237.8l3.1-0.1v4.6h-3.1z"/><path class="e" d="m683.6 237.8l3.1-0.1v4.6h-3.1z"/><path class="e" d="m663.5 237.8l3-0.1v4.6h-3z"/><path class="e" d="m694.7 237.8l3-0.1v4.6h-3z"/><path class="e" d="m700.3 237.8l3.1-0.1v4.6h-3.1z"/><path class="e" d="m706.1 237.8l3-0.1v4.6h-3z"/><path class="e" d="m711.8 237.8l3-0.1v4.6h-3z"/><path class="e" d="m717.1 237.8l3.1-0.1v4.6h-3.1z"/><path class="e" d="m722.6 237.8l3.1-0.1v4.6h-3.1z"/><path class="e" d="m728.2 237.8l2.7-0.1v4.6h-2.7z"/><path class="e" d="m733.4 237.8l2.2-0.1v4.6h-2.2z"/><path class="e" d="m738.2 237.8l2.3-0.1v4.6h-2.3z"/><path class="e" d="m742.9 237.8l1.8-0.1v4.6h-1.8z"/><path class="e" d="m747.3 237.8l1.4-0.1v4.6h-1.4z"/><path class="e" d="m689.1 237.8l3-0.1v4.6h-3z"/><path class="e" d="m659.2 237.8l2.6-0.1v4.6h-2.6z"/><path class="e" d="m655 237.8l2.6-0.1v4.6h-2.6z"/><path class="e" d="m651.5 237.8l2-0.1v4.6h-2z"/><path class="e" d="m648.3 237.8l1.6-0.1v4.6h-1.6z"/><path class="e" d="m645.5 237.8l1.1-0.1v4.6h-1.1z"/><path class="e" d="m643 237.8l0.8-0.1v4.6h-0.8z"/><path class="e" d="m640.7 237.8l0.3-0.1v4.6h-0.3z"/><path class="e" d="m638.5 237.8l0.1-0.1v4.6h-0.1z"/><path class="e" d="m753.1 242.3h-1.7v-4.5h1.7z"/><path class="e" d="m755.9 242.3h-1.1v-4.5h1.1z"/><path class="e" d="m758.4 242.3h-0.8v-4.5h0.8z"/><path class="e" d="m760.7 242.3h-0.3v-4.5h0.3z"/><path class="e" d="m762.8 237.8l0.2-0.1v4.6h-0.2z"/><path class="e" d="m668.1 246.1h3v4.6h-3z"/><path class="e" d="m673.1 246.1h3v4.6h-3z"/><path class="e" d="m678.3 246.1h3.1v4.6h-3.1z"/><path class="e" d="m683.6 246.1h3.1v4.6h-3.1z"/><path class="e" d="m663.5 246.1h3v4.6h-3z"/><path class="e" d="m694.7 246.1h3v4.6h-3z"/><path class="e" d="m700.3 246.1h3.1v4.6h-3.1z"/><path class="e" d="m706.1 246.1h3v4.6h-3z"/><path class="e" d="m711.8 246.1h3v4.6h-3z"/><path class="e" d="m717.1 246.1h3.1v4.6h-3.1z"/><path class="e" d="m722.6 246.1h3.1v4.6h-3.1z"/><path class="e" d="m728.2 246.1h2.7v4.6h-2.7z"/><path class="e" d="m733.4 246.1h2.2v4.6h-2.2z"/><path class="e" d="m738.2 246.1h2.3v4.6h-2.3z"/><path class="e" d="m742.9 246.1h1.8v4.6h-1.8z"/><path class="e" d="m747.3 246.1h1.4v4.6h-1.4z"/><path class="e" d="m689.1 246.1h3v4.6h-3z"/><path class="e" d="m659.2 246.1h2.6v4.6h-2.6z"/><path class="e" d="m655 246.1h2.6v4.6h-2.6z"/><path class="e" d="m651.5 246.1h2v4.6h-2z"/><path class="e" d="m648.3 246.1h1.6v4.6h-1.6z"/><path class="e" d="m645.5 246.1h1.1v4.6h-1.1z"/><path class="e" d="m643 246.1h0.8v4.6h-0.8z"/><path class="e" d="m640.7 246.1h0.3v4.6h-0.3z"/><path class="e" d="m638.5 246.1h0.1v4.6h-0.1z"/><path class="e" d="m753.1 250.7h-1.7v-4.6h1.7z"/><path class="e" d="m755.9 250.7h-1.1v-4.6h1.1z"/><path class="e" d="m758.4 250.7h-0.8v-4.6h0.8z"/><path class="e" d="m760.7 250.7h-0.3v-4.6h0.3z"/><path class="e" d="m762.8 246.1h0.2v4.6h-0.2z"/><path class="e" d="m668.1 254.5h3v4.5h-3z"/><path class="e" d="m673.1 254.5h3v4.5h-3z"/><path class="e" d="m678.3 254.5h3.1v4.5h-3.1z"/><path class="e" d="m683.6 254.5h3.1v4.5h-3.1z"/><path class="e" d="m663.5 254.5h3v4.5h-3z"/><path class="e" d="m694.7 254.5h3v4.5h-3z"/><path class="e" d="m700.3 254.5h3.1v4.5h-3.1z"/><path class="e" d="m706.1 254.5h3v4.5h-3z"/><path class="e" d="m711.8 254.5h3v4.5h-3z"/><path class="e" d="m717.1 254.5h3.1v4.5h-3.1z"/><path class="e" d="m722.6 254.5h3.1v4.5h-3.1z"/><path class="e" d="m728.2 254.5h2.7v4.5h-2.7z"/><path class="e" d="m733.4 254.5h2.2v4.5h-2.2z"/><path class="e" d="m738.2 254.5h2.3v4.5h-2.3z"/><path class="e" d="m742.9 254.5h1.8v4.5h-1.8z"/><path class="e" d="m747.3 254.5h1.4v4.5h-1.4z"/><path class="e" d="m689.1 254.5h3v4.5h-3z"/><path class="e" d="m659.2 254.5h2.6v4.5h-2.6z"/><path class="e" d="m655 254.5h2.6v4.5h-2.6z"/><path class="e" d="m651.5 254.5h2v4.5h-2z"/><path class="e" d="m648.3 254.5h1.6v4.5h-1.6z"/><path class="e" d="m645.5 254.5h1.1v4.5h-1.1z"/><path class="e" d="m643 254.5h0.8v4.5h-0.8z"/><path class="e" d="m640.7 254.5h0.3v4.5h-0.3z"/><path class="e" d="m638.5 254.5h0.1v4.5h-0.1z"/><path class="e" d="m753.1 259h-1.7v-4.5h1.7z"/><path class="e" d="m755.9 259h-1.1v-4.5h1.1z"/><path class="e" d="m758.4 259h-0.8v-4.5h0.8z"/><path class="e" d="m760.7 259h-0.3v-4.5h0.3z"/><path class="e" d="m762.8 254.5h0.2v4.5h-0.2z"/><path class="e" d="m668.1 262.8h3v4.6h-3z"/><path class="e" d="m673.1 262.8h3v4.6h-3z"/><path class="e" d="m678.3 262.8h3.1v4.6h-3.1z"/><path class="e" d="m683.6 262.8h3.1v4.6h-3.1z"/><path class="e" d="m663.5 262.8h3v4.6h-3z"/><path class="e" d="m694.7 262.8h3v4.6h-3z"/><path class="e" d="m700.3 262.8h3.1v4.6h-3.1z"/><path class="e" d="m706.1 262.8h3v4.6h-3z"/><path class="e" d="m711.8 262.8h3v4.6h-3z"/><path class="e" d="m717.1 262.8h3.1v4.6h-3.1z"/><path class="e" d="m722.6 262.8h3.1v4.6h-3.1z"/><path class="e" d="m728.2 262.8h2.7v4.6h-2.7z"/><path class="e" d="m733.4 262.8h2.2v4.6h-2.2z"/><path class="e" d="m738.2 262.8h2.3v4.6h-2.3z"/><path class="e" d="m742.9 262.8h1.8v4.6h-1.8z"/><path class="e" d="m747.3 262.8h1.4v4.6h-1.4z"/><path class="e" d="m689.1 262.8h3v4.6h-3z"/><path class="e" d="m659.2 262.8h2.6v4.6h-2.6z"/><path class="e" d="m655 262.8h2.6v4.6h-2.6z"/><path class="e" d="m651.5 262.8h2v4.6h-2z"/><path class="e" d="m648.3 262.8h1.6v4.6h-1.6z"/><path class="e" d="m645.5 262.8h1.1v4.6h-1.1z"/><path class="e" d="m643 262.8h0.8v4.6h-0.8z"/><path class="e" d="m640.7 262.8h0.3v4.6h-0.3z"/><path class="e" d="m638.5 262.8h0.1v4.6h-0.1z"/><path class="e" d="m753.1 267.4h-1.7v-4.6h1.7z"/><path class="e" d="m755.9 267.4h-1.1v-4.6h1.1z"/><path class="e" d="m758.4 267.4h-0.8v-4.6h0.8z"/><path class="e" d="m760.7 267.4h-0.3v-4.6h0.3z"/><path class="e" d="m762.8 262.8h0.2v4.6h-0.2z"/><path class="e" d="m668.1 271.2h3v4.6h-3z"/><path class="e" d="m673.1 271.2h3v4.6h-3z"/><path class="e" d="m678.3 271.2h3.1v4.6h-3.1z"/><path class="e" d="m683.6 271.2h3.1v4.6h-3.1z"/><path class="e" d="m663.5 271.2h3v4.6h-3z"/><path class="e" d="m694.7 271.2h3v4.6h-3z"/><path class="e" d="m700.3 271.2h3.1v4.6h-3.1z"/><path class="e" d="m706.1 271.2h3v4.6h-3z"/><path class="e" d="m711.8 271.2h3v4.6h-3z"/><path class="e" d="m717.1 271.2h3.1v4.6h-3.1z"/><path class="e" d="m722.6 271.2h3.1v4.6h-3.1z"/><path class="e" d="m728.2 271.2h2.7v4.6h-2.7z"/><path class="e" d="m733.4 271.2h2.2v4.6h-2.2z"/><path class="e" d="m738.2 271.2h2.3v4.6h-2.3z"/><path class="e" d="m742.9 271.2h1.8v4.6h-1.8z"/><path class="e" d="m747.3 271.2h1.4v4.6h-1.4z"/><path class="e" d="m689.1 271.2h3v4.6h-3z"/><path class="e" d="m659.2 271.2h2.6v4.6h-2.6z"/><path class="e" d="m655 271.2h2.6v4.6h-2.6z"/><path class="e" d="m651.5 271.2h2v4.6h-2z"/><path class="e" d="m648.3 271.2h1.6v4.6h-1.6z"/><path class="e" d="m645.5 271.2h1.1v4.6h-1.1z"/><path class="e" d="m643 271.2h0.8v4.6h-0.8z"/><path class="e" d="m640.7 271.2h0.3v4.6h-0.3z"/><path class="e" d="m638.5 271.2h0.1v4.6h-0.1z"/><path class="e" d="m753.1 275.8h-1.7v-4.6h1.7z"/><path class="e" d="m755.9 275.8h-1.1v-4.6h1.1z"/><path class="e" d="m758.4 275.8h-0.8v-4.6h0.8z"/><path class="e" d="m760.7 275.8h-0.3v-4.6h0.3z"/><path class="e" d="m762.8 271.2h0.2v4.6h-0.2z"/></g><path class="f" d="m11.3 46.9l57.2-41.1c12-8.6 28.8-5.9 37.4 6.1 8.6 12 5.9 28.8-6.1 37.4l-57.2 41.1c-12 8.6-28.8 5.9-37.4-6.1-8.6-12-5.9-28.8 6.1-37.4z"/><path class="g" d="m5.2 53.1c8.6-12 25.4-14.8 37.4-6.2l57.2 41.2c12 8.6 14.7 25.3 6.1 37.3-8.6 12-25.4 14.8-37.4 6.1l-57.2-41.1c-12-8.6-14.7-25.3-6.1-37.3z"/></svg>